<svg id="svg" version="1.1" width="400" height="201.0928961748634" viewBox="0 0 400 201.0928961748634" xmlns="http://www.w3.org/2000/svg" xmlns:xlink="http://www.w3.org/1999/xlink" ><g id="svgg"><path id="path0" d="M1.743 2.145 C 1.551 2.337,1.583 199.748,1.775 200.050 C 1.902 200.251,41.702 200.292,200.112 200.251 L 398.291 200.201 398.291 101.156 L 398.291 2.112 200.084 2.061 C 91.070 2.034,1.817 2.071,1.743 2.145 M395.535 4.867 C 395.791 5.123,395.910 196.704,395.655 197.369 C 395.544 197.659,378.115 197.687,200.002 197.687 L 4.471 197.687 4.350 197.235 C 4.095 196.284,4.209 5.122,4.465 4.867 C 4.817 4.515,395.183 4.515,395.535 4.867 M9.787 9.988 C 9.455 10.320,9.639 192.209,9.971 192.336 C 10.559 192.562,389.737 192.476,390.159 192.250 C 390.710 191.955,390.781 10.188,390.230 9.976 C 389.794 9.809,9.955 9.821,9.787 9.988 M387.833 101.156 L 387.833 189.542 200.000 189.542 L 12.167 189.542 12.115 101.357 C 12.087 52.856,12.107 13.059,12.159 12.921 C 12.236 12.720,49.918 12.680,200.044 12.720 L 387.833 12.770 387.833 101.156 M67.950 81.599 C 67.918 81.802,67.948 81.940,68.303 83.243 C 68.472 83.859,68.729 84.816,68.875 85.370 C 69.021 85.923,69.296 86.918,69.486 87.582 C 69.676 88.245,69.907 89.105,70.000 89.492 C 70.219 90.402,71.212 94.060,72.212 97.637 C 72.304 97.969,72.512 98.738,72.672 99.346 C 72.833 99.955,73.199 101.312,73.487 102.363 C 74.435 105.828,75.253 108.887,75.438 109.660 C 75.625 110.436,76.021 111.212,76.232 111.212 C 77.010 111.212,77.015 106.759,76.239 104.072 C 75.888 102.856,75.384 101.046,75.119 100.050 C 74.854 99.055,74.486 97.697,74.301 97.034 C 74.115 96.370,73.895 95.544,73.811 95.197 C 73.727 94.851,73.599 94.472,73.527 94.356 C 73.455 94.240,73.314 93.754,73.214 93.276 C 73.050 92.497,72.690 91.103,72.212 89.392 C 70.939 84.836,70.853 84.520,70.572 83.358 C 70.141 81.574,70.034 81.448,68.955 81.448 C 68.415 81.448,67.963 81.516,67.950 81.599 M88.702 81.900 C 88.603 82.149,88.372 82.896,88.187 83.560 C 88.002 84.223,87.781 84.992,87.695 85.269 C 87.608 85.546,87.377 86.315,87.181 86.978 C 86.985 87.642,86.710 88.547,86.570 88.989 C 86.431 89.432,86.206 90.201,86.071 90.699 C 85.936 91.197,85.701 92.011,85.549 92.509 C 85.398 93.007,84.994 94.364,84.651 95.525 C 84.309 96.687,83.956 97.863,83.867 98.140 C 83.778 98.416,83.548 99.231,83.356 99.950 C 83.163 100.669,82.882 101.542,82.730 101.891 C 82.578 102.239,82.453 102.665,82.453 102.836 C 82.453 103.008,82.372 103.356,82.273 103.610 C 82.173 103.865,81.936 104.661,81.745 105.380 C 81.554 106.099,81.281 107.049,81.139 107.491 C 80.997 107.934,80.728 108.839,80.541 109.502 C 80.354 110.166,80.120 110.980,80.022 111.312 C 79.923 111.644,79.567 112.866,79.231 114.027 C 78.895 115.189,78.474 116.627,78.296 117.224 C 77.904 118.542,78.107 120.115,78.683 120.224 C 78.877 120.261,79.074 120.171,79.121 120.025 C 79.397 119.161,80.245 116.363,80.542 115.334 C 80.734 114.671,81.009 113.766,81.153 113.323 C 81.298 112.881,81.655 111.704,81.948 110.709 C 82.241 109.713,82.598 108.537,82.742 108.095 C 82.886 107.652,83.164 106.747,83.360 106.083 C 83.556 105.420,83.788 104.651,83.876 104.374 C 83.963 104.098,84.322 102.921,84.673 101.760 C 85.025 100.598,85.428 99.286,85.570 98.844 C 85.711 98.401,86.072 97.225,86.372 96.229 C 86.672 95.234,87.033 94.057,87.176 93.615 C 87.318 93.172,87.591 92.267,87.783 91.604 C 87.975 90.940,88.342 89.718,88.598 88.889 C 88.854 88.059,89.347 86.430,89.694 85.269 C 90.041 84.108,90.409 82.949,90.512 82.695 C 90.917 81.695,90.774 81.448,89.790 81.448 C 89.034 81.448,88.850 81.524,88.702 81.900 M97.479 81.573 C 97.274 81.778,97.307 120.106,97.512 120.430 C 97.606 120.578,97.898 120.668,98.163 120.631 L 98.643 120.563 98.643 101.056 L 98.643 81.549 98.132 81.489 C 97.852 81.456,97.557 81.494,97.479 81.573 M104.317 81.572 C 104.143 81.746,104.122 119.893,104.295 120.346 C 104.498 120.875,105.749 120.769,105.884 120.211 C 105.944 119.962,105.968 111.161,105.938 100.654 L 105.882 81.549 105.171 81.489 C 104.780 81.456,104.396 81.493,104.317 81.572 M142.564 81.699 C 142.399 81.837,142.100 82.494,141.900 83.157 C 141.699 83.821,141.422 84.681,141.284 85.068 C 140.864 86.243,140.579 87.094,139.936 89.090 C 139.597 90.141,139.112 91.589,138.857 92.308 C 138.603 93.027,138.106 94.520,137.753 95.626 C 137.400 96.732,137.047 97.773,136.968 97.939 C 136.890 98.105,136.529 99.191,136.168 100.352 C 135.806 101.513,135.427 102.675,135.324 102.933 C 135.221 103.191,133.960 106.947,132.522 111.279 C 131.085 115.611,129.819 119.312,129.710 119.505 C 129.228 120.355,129.448 120.690,130.447 120.624 C 131.583 120.550,131.364 120.974,133.132 115.435 C 133.927 112.946,134.659 110.753,134.760 110.561 C 134.860 110.369,134.942 110.078,134.942 109.914 C 134.942 109.750,135.070 109.319,135.227 108.956 C 135.384 108.593,136.166 106.259,136.966 103.771 C 137.766 101.282,139.118 97.119,139.970 94.520 C 140.822 91.921,141.691 89.221,141.901 88.521 C 142.321 87.119,142.873 86.563,143.083 87.330 C 143.302 88.131,145.434 94.778,145.905 96.129 C 146.156 96.848,146.651 98.386,147.006 99.548 C 147.360 100.709,147.723 101.840,147.811 102.061 C 147.899 102.283,148.105 102.871,148.269 103.369 C 148.433 103.866,149.726 107.803,151.143 112.117 C 153.956 120.678,153.949 120.664,155.084 120.664 C 155.973 120.664,156.080 120.290,155.586 118.908 C 155.202 117.833,155.122 117.594,152.246 108.994 C 150.821 104.733,149.568 101.022,149.461 100.749 C 149.353 100.475,148.978 99.346,148.626 98.240 C 148.275 97.134,147.910 96.048,147.817 95.827 C 147.723 95.606,147.492 94.927,147.304 94.319 C 147.115 93.710,146.836 92.915,146.683 92.552 C 146.530 92.189,146.405 91.732,146.405 91.537 C 146.405 91.341,146.331 91.096,146.240 90.990 C 146.150 90.885,145.409 88.763,144.595 86.275 C 142.962 81.280,142.989 81.342,142.564 81.699 M161.890 100.632 L 161.890 119.816 162.436 119.952 C 163.557 120.234,163.523 120.768,163.485 103.410 C 163.466 94.639,163.496 87.417,163.552 87.361 C 163.608 87.305,163.854 87.694,164.099 88.225 C 165.542 91.361,165.835 91.802,166.517 91.870 C 167.669 91.984,167.628 91.703,166.048 88.663 C 165.221 87.073,164.146 85.003,163.659 84.062 C 162.597 82.015,162.246 81.448,162.043 81.448 C 161.959 81.448,161.890 90.081,161.890 100.632 M196.265 82.020 C 191.956 83.761,188.927 88.463,187.749 95.241 C 187.377 97.377,187.311 104.175,187.643 106.083 C 187.759 106.747,187.934 107.788,188.032 108.396 C 189.003 114.395,192.953 119.360,197.540 120.347 C 199.577 120.786,199.858 119.432,197.855 118.824 C 197.229 118.634,196.348 118.246,195.899 117.962 C 195.449 117.678,195.003 117.446,194.909 117.446 C 194.634 117.446,192.196 114.790,191.765 114.022 C 191.550 113.638,191.201 112.916,190.990 112.418 C 190.779 111.921,190.529 111.332,190.436 111.111 C 188.561 106.685,188.565 95.926,190.444 91.001 C 191.770 87.526,193.715 85.157,196.250 83.929 C 199.105 82.546,204.354 82.905,205.742 84.578 C 206.109 85.020,206.691 84.923,207.061 84.358 C 207.245 84.078,207.360 83.824,207.317 83.793 C 207.275 83.763,206.878 83.469,206.435 83.140 C 203.991 81.323,199.276 80.804,196.265 82.020 M228.494 82.189 L 228.557 82.956 231.775 83.089 C 236.057 83.266,237.772 83.755,239.682 85.343 C 246.351 90.887,245.369 104.201,238.042 107.576 C 236.134 108.456,235.048 108.661,231.674 108.785 L 228.557 108.899 228.504 114.781 L 228.450 120.664 229.248 120.664 L 230.045 120.664 230.106 115.753 C 230.139 113.052,230.241 110.767,230.333 110.675 C 230.425 110.583,231.783 110.453,233.350 110.387 C 234.949 110.319,236.552 110.143,237.004 109.985 C 239.302 109.181,241.839 107.384,242.937 105.782 C 243.202 105.395,243.485 105.032,243.565 104.975 C 243.832 104.786,245.206 101.669,245.382 100.855 C 246.030 97.851,246.142 94.327,245.651 92.441 C 245.485 91.804,245.349 91.157,245.349 91.003 C 245.349 90.465,243.783 87.354,242.955 86.246 C 240.485 82.943,237.447 81.639,231.913 81.506 L 228.431 81.422 228.494 82.189 M265.365 82.041 C 265.196 82.368,265.058 82.776,265.058 82.949 C 265.058 83.122,264.967 83.421,264.857 83.613 C 264.746 83.805,263.488 87.491,262.060 91.805 C 260.633 96.119,259.374 99.874,259.262 100.151 C 259.151 100.427,258.764 101.604,258.402 102.765 C 258.041 103.927,257.679 105.013,257.598 105.178 C 257.518 105.344,256.715 107.743,255.815 110.508 C 254.916 113.273,254.058 115.852,253.909 116.239 C 253.468 117.391,252.589 120.191,252.589 120.448 C 252.589 120.606,252.908 120.665,253.543 120.624 L 254.496 120.563 255.628 117.144 C 256.251 115.264,256.949 113.137,257.179 112.418 C 257.409 111.699,257.692 110.840,257.808 110.508 C 258.127 109.593,260.426 102.522,261.730 98.441 C 262.366 96.450,263.010 94.505,263.161 94.118 C 263.312 93.731,263.582 92.916,263.762 92.308 C 263.941 91.699,264.157 91.021,264.241 90.799 C 264.591 89.880,264.902 88.953,265.049 88.386 C 265.384 87.103,266.063 86.141,266.063 86.950 C 266.063 87.228,268.078 93.638,268.569 94.922 C 268.717 95.309,269.359 97.255,269.995 99.246 C 271.880 105.141,276.660 119.512,276.935 120.111 C 277.290 120.885,279.259 120.980,279.025 120.211 C 278.259 117.699,278.065 117.089,277.917 116.742 C 277.823 116.521,276.930 113.896,275.933 110.910 C 273.662 104.110,273.677 104.155,273.491 103.670 C 273.407 103.449,273.180 102.770,272.989 102.162 C 272.797 101.554,272.435 100.468,272.184 99.749 C 271.933 99.030,271.438 97.536,271.083 96.430 C 270.729 95.324,270.362 94.238,270.269 94.017 C 270.176 93.796,269.321 91.262,268.369 88.386 C 265.796 80.610,265.943 80.922,265.365 82.041 M284.967 82.152 C 284.967 83.033,284.423 82.918,289.191 83.046 L 293.313 83.157 293.414 101.860 L 293.514 120.563 294.267 120.625 L 295.021 120.688 295.072 101.923 L 295.123 83.157 297.235 83.057 L 299.346 82.956 299.409 82.202 L 299.471 81.448 292.219 81.448 L 284.967 81.448 284.967 82.152 M300.926 81.753 C 300.636 82.509,301.185 83.057,302.234 83.057 C 303.327 83.057,303.740 82.749,303.635 82.012 C 303.550 81.408,301.147 81.178,300.926 81.753 M310.249 81.573 C 310.075 81.746,310.054 119.894,310.228 120.346 C 310.465 120.963,311.282 120.731,311.411 120.010 C 311.475 119.651,311.501 110.850,311.470 100.452 L 311.413 81.549 310.902 81.489 C 310.622 81.456,310.328 81.494,310.249 81.573 M316.943 96.141 L 316.943 110.834 317.697 110.771 L 318.451 110.709 318.503 96.078 L 318.555 81.448 317.749 81.448 L 316.943 81.448 316.943 96.141 M179.300 82.571 C 179.228 82.856,179.177 90.028,179.186 98.508 C 179.195 106.988,179.198 114.085,179.194 114.279 C 179.178 114.945,178.882 114.622,178.281 113.280 C 177.051 110.540,176.887 110.313,176.090 110.244 C 175.101 110.159,175.129 110.560,176.256 112.665 C 176.746 113.580,177.810 115.597,178.619 117.147 C 180.487 120.723,180.530 120.794,180.729 120.595 C 180.920 120.404,181.076 84.198,180.892 82.906 C 180.738 81.832,179.548 81.581,179.300 82.571 M121.411 91.829 C 121.332 91.908,121.267 94.989,121.267 98.676 C 121.267 102.363,121.244 105.399,121.217 105.423 C 121.189 105.448,117.908 105.516,113.927 105.574 L 106.687 105.681 106.687 106.385 L 106.687 107.089 113.927 107.190 L 121.166 107.290 121.267 113.927 L 121.368 120.563 122.123 120.626 L 122.878 120.688 122.827 106.247 L 122.775 91.805 122.165 91.745 C 121.829 91.712,121.490 91.750,121.411 91.829 M199.631 104.508 C 199.440 104.699,199.471 105.228,199.694 105.581 C 199.848 105.826,200.611 105.901,203.763 105.983 L 207.642 106.083 207.696 111.388 C 207.735 115.264,207.685 116.770,207.510 116.981 C 207.036 117.553,204.304 118.676,202.262 119.138 C 201.645 119.278,201.487 120.028,201.989 120.444 C 202.593 120.946,206.058 119.898,207.864 118.667 L 209.251 117.721 209.304 111.048 L 209.357 104.374 204.561 104.374 C 201.923 104.374,199.705 104.434,199.631 104.508 M140.303 109.538 C 140.140 109.700,140.299 110.763,140.673 112.016 C 140.916 112.830,141.225 113.957,141.776 116.038 C 142.993 120.640,142.957 120.563,143.900 120.563 C 144.819 120.563,144.840 120.462,144.303 118.653 C 144.122 118.044,143.621 116.189,143.189 114.530 C 142.144 110.514,141.975 109.949,141.734 109.653 C 141.517 109.387,140.533 109.308,140.303 109.538 M199.345 109.801 C 198.994 110.362,199.033 110.691,199.498 111.112 C 200.078 111.637,200.905 111.249,200.905 110.452 C 200.905 109.431,199.850 108.992,199.345 109.801 M263.352 109.597 C 263.286 109.704,263.470 110.722,263.760 111.859 C 264.051 112.996,264.370 114.317,264.469 114.795 C 264.568 115.272,264.705 115.754,264.774 115.865 C 264.842 115.977,265.108 116.913,265.364 117.945 C 265.981 120.439,266.114 120.664,266.975 120.664 C 267.744 120.664,267.861 120.318,267.489 119.135 C 267.389 118.814,266.928 117.104,266.465 115.334 C 264.893 109.317,264.926 109.402,264.148 109.402 C 263.777 109.402,263.419 109.489,263.352 109.597 M316.943 117.446 L 316.943 120.664 324.363 120.664 C 330.943 120.664,331.796 120.628,331.904 120.346 C 332.025 120.029,332.072 119.295,331.976 119.213 C 331.948 119.189,328.939 119.121,325.289 119.062 L 318.653 118.954 318.596 116.591 L 318.539 114.228 317.741 114.228 L 316.943 114.228 316.943 117.446 " stroke="none" fill="#212121" fill-rule="evenodd"></path><path id="path1" d="M0.000 100.553 L 0.000 201.106 200.000 201.106 L 400.000 201.106 400.000 100.553 L 400.000 0.000 200.000 0.000 L 0.000 0.000 0.000 100.553 M398.291 101.156 L 398.291 200.201 200.112 200.251 C 41.702 200.292,1.902 200.251,1.775 200.050 C 1.583 199.748,1.551 2.337,1.743 2.145 C 1.817 2.071,91.070 2.034,200.084 2.061 L 398.291 2.112 398.291 101.156 M4.465 4.867 C 4.209 5.122,4.095 196.284,4.350 197.235 L 4.471 197.687 200.002 197.687 C 378.115 197.687,395.544 197.659,395.655 197.369 C 395.910 196.704,395.791 5.123,395.535 4.867 C 395.183 4.515,4.817 4.515,4.465 4.867 M390.230 9.976 C 390.781 10.188,390.710 191.955,390.159 192.250 C 389.737 192.476,10.559 192.562,9.971 192.336 C 9.639 192.209,9.455 10.320,9.787 9.988 C 9.955 9.821,389.794 9.809,390.230 9.976 M12.159 12.921 C 12.107 13.059,12.087 52.856,12.115 101.357 L 12.167 189.542 200.000 189.542 L 387.833 189.542 387.833 101.156 L 387.833 12.770 200.044 12.720 C 49.918 12.680,12.236 12.720,12.159 12.921 M70.157 82.001 C 70.278 82.305,70.465 82.916,70.572 83.358 C 70.853 84.520,70.939 84.836,72.212 89.392 C 72.690 91.103,73.050 92.497,73.214 93.276 C 73.314 93.754,73.455 94.240,73.527 94.356 C 73.599 94.472,73.727 94.851,73.811 95.197 C 73.895 95.544,74.115 96.370,74.301 97.034 C 74.486 97.697,74.854 99.055,75.119 100.050 C 75.384 101.046,75.888 102.856,76.239 104.072 C 77.015 106.759,77.010 111.212,76.232 111.212 C 76.021 111.212,75.625 110.436,75.438 109.660 C 75.253 108.887,74.435 105.828,73.487 102.363 C 73.199 101.312,72.833 99.955,72.672 99.346 C 72.512 98.738,72.304 97.969,72.212 97.637 C 71.212 94.060,70.219 90.402,70.000 89.492 C 69.907 89.105,69.676 88.245,69.486 87.582 C 69.296 86.918,69.021 85.923,68.875 85.370 C 68.729 84.816,68.472 83.859,68.303 83.243 C 67.789 81.357,67.756 81.448,68.955 81.448 C 69.838 81.448,69.958 81.503,70.157 82.001 M90.699 81.841 C 90.699 82.057,90.615 82.441,90.512 82.695 C 90.409 82.949,90.041 84.108,89.694 85.269 C 89.347 86.430,88.854 88.059,88.598 88.889 C 88.342 89.718,87.975 90.940,87.783 91.604 C 87.591 92.267,87.318 93.172,87.176 93.615 C 87.033 94.057,86.672 95.234,86.372 96.229 C 86.072 97.225,85.711 98.401,85.570 98.844 C 85.428 99.286,85.025 100.598,84.673 101.760 C 84.322 102.921,83.963 104.098,83.876 104.374 C 83.788 104.651,83.556 105.420,83.360 106.083 C 83.164 106.747,82.886 107.652,82.742 108.095 C 82.598 108.537,82.241 109.713,81.948 110.709 C 81.655 111.704,81.298 112.881,81.153 113.323 C 81.009 113.766,80.734 114.671,80.542 115.334 C 80.245 116.363,79.397 119.161,79.121 120.025 C 79.074 120.171,78.877 120.261,78.683 120.224 C 78.107 120.115,77.904 118.542,78.296 117.224 C 78.474 116.627,78.895 115.189,79.231 114.027 C 79.567 112.866,79.923 111.644,80.022 111.312 C 80.120 110.980,80.354 110.166,80.541 109.502 C 80.728 108.839,80.997 107.934,81.139 107.491 C 81.281 107.049,81.554 106.099,81.745 105.380 C 81.936 104.661,82.173 103.865,82.273 103.610 C 82.372 103.356,82.453 103.008,82.453 102.836 C 82.453 102.665,82.578 102.239,82.730 101.891 C 82.882 101.542,83.163 100.669,83.356 99.950 C 83.548 99.231,83.778 98.416,83.867 98.140 C 83.956 97.863,84.309 96.687,84.651 95.525 C 84.994 94.364,85.398 93.007,85.549 92.509 C 85.701 92.011,85.936 91.197,86.071 90.699 C 86.206 90.201,86.431 89.432,86.570 88.989 C 86.710 88.547,86.985 87.642,87.181 86.978 C 87.377 86.315,87.608 85.546,87.695 85.269 C 87.781 84.992,88.002 84.223,88.187 83.560 C 88.778 81.439,88.771 81.448,89.790 81.448 C 90.557 81.448,90.699 81.509,90.699 81.841 M98.643 101.056 L 98.643 120.563 98.163 120.631 C 97.898 120.668,97.606 120.578,97.512 120.430 C 97.307 120.106,97.274 81.778,97.479 81.573 C 97.557 81.494,97.852 81.456,98.132 81.489 L 98.643 81.549 98.643 101.056 M105.938 100.654 C 105.968 111.161,105.944 119.962,105.884 120.211 C 105.749 120.769,104.498 120.875,104.295 120.346 C 104.122 119.893,104.143 81.746,104.317 81.572 C 104.396 81.493,104.780 81.456,105.171 81.489 L 105.882 81.549 105.938 100.654 M144.595 86.275 C 145.409 88.763,146.150 90.885,146.240 90.990 C 146.331 91.096,146.405 91.341,146.405 91.537 C 146.405 91.732,146.530 92.189,146.683 92.552 C 146.836 92.915,147.115 93.710,147.304 94.319 C 147.492 94.927,147.723 95.606,147.817 95.827 C 147.910 96.048,148.275 97.134,148.626 98.240 C 148.978 99.346,149.353 100.475,149.461 100.749 C 149.568 101.022,150.821 104.733,152.246 108.994 C 155.122 117.594,155.202 117.833,155.586 118.908 C 156.080 120.290,155.973 120.664,155.084 120.664 C 153.949 120.664,153.956 120.678,151.143 112.117 C 149.726 107.803,148.433 103.866,148.269 103.369 C 148.105 102.871,147.899 102.283,147.811 102.061 C 147.723 101.840,147.360 100.709,147.006 99.548 C 146.651 98.386,146.156 96.848,145.905 96.129 C 145.434 94.778,143.302 88.131,143.083 87.330 C 142.873 86.563,142.321 87.119,141.901 88.521 C 141.691 89.221,140.822 91.921,139.970 94.520 C 139.118 97.119,137.766 101.282,136.966 103.771 C 136.166 106.259,135.384 108.593,135.227 108.956 C 135.070 109.319,134.942 109.750,134.942 109.914 C 134.942 110.078,134.860 110.369,134.760 110.561 C 134.659 110.753,133.927 112.946,133.132 115.435 C 131.364 120.974,131.583 120.550,130.447 120.624 C 129.448 120.690,129.228 120.355,129.710 119.505 C 129.819 119.312,131.085 115.611,132.522 111.279 C 133.960 106.947,135.221 103.191,135.324 102.933 C 135.427 102.675,135.806 101.513,136.168 100.352 C 136.529 99.191,136.890 98.105,136.968 97.939 C 137.047 97.773,137.400 96.732,137.753 95.626 C 138.106 94.520,138.603 93.027,138.857 92.308 C 139.112 91.589,139.597 90.141,139.936 89.090 C 140.579 87.094,140.864 86.243,141.284 85.068 C 141.422 84.681,141.699 83.821,141.900 83.157 C 142.682 80.572,142.759 80.662,144.595 86.275 M162.484 81.900 C 162.642 82.149,163.171 83.122,163.659 84.062 C 164.146 85.003,165.221 87.073,166.048 88.663 C 167.628 91.703,167.669 91.984,166.517 91.870 C 165.835 91.802,165.542 91.361,164.099 88.225 C 163.854 87.694,163.608 87.305,163.552 87.361 C 163.496 87.417,163.466 94.639,163.485 103.410 C 163.523 120.768,163.557 120.234,162.436 119.952 L 161.890 119.816 161.890 100.632 C 161.890 90.081,161.959 81.448,162.043 81.448 C 162.127 81.448,162.325 81.652,162.484 81.900 M203.720 81.758 C 204.979 82.181,205.507 82.450,206.435 83.140 C 206.878 83.469,207.275 83.763,207.317 83.793 C 207.360 83.824,207.245 84.078,207.061 84.358 C 206.691 84.923,206.109 85.020,205.742 84.578 C 204.354 82.905,199.105 82.546,196.250 83.929 C 193.715 85.157,191.770 87.526,190.444 91.001 C 188.565 95.926,188.561 106.685,190.436 111.111 C 190.529 111.332,190.779 111.921,190.990 112.418 C 191.201 112.916,191.550 113.638,191.765 114.022 C 192.196 114.790,194.634 117.446,194.909 117.446 C 195.003 117.446,195.449 117.678,195.899 117.962 C 196.348 118.246,197.229 118.634,197.855 118.824 C 199.858 119.432,199.577 120.786,197.540 120.347 C 192.953 119.360,189.003 114.395,188.032 108.396 C 187.934 107.788,187.759 106.747,187.643 106.083 C 186.137 97.431,189.033 86.932,193.924 83.309 C 196.284 81.562,200.942 80.824,203.720 81.758 M236.465 81.914 C 239.214 82.745,241.456 84.241,242.955 86.246 C 243.783 87.354,245.349 90.465,245.349 91.003 C 245.349 91.157,245.485 91.804,245.651 92.441 C 246.142 94.327,246.030 97.851,245.382 100.855 C 245.206 101.669,243.832 104.786,243.565 104.975 C 243.485 105.032,243.202 105.395,242.937 105.782 C 241.839 107.384,239.302 109.181,237.004 109.985 C 236.552 110.143,234.949 110.319,233.350 110.387 C 231.783 110.453,230.425 110.583,230.333 110.675 C 230.241 110.767,230.139 113.052,230.106 115.753 L 230.045 120.664 229.248 120.664 L 228.450 120.664 228.504 114.781 L 228.557 108.899 231.674 108.785 C 235.048 108.661,236.134 108.456,238.042 107.576 C 245.369 104.201,246.351 90.887,239.682 85.343 C 237.772 83.755,236.057 83.266,231.775 83.089 L 228.557 82.956 228.494 82.189 L 228.431 81.422 231.913 81.506 C 234.324 81.564,235.724 81.689,236.465 81.914 M266.324 82.303 C 266.497 82.773,267.417 85.510,268.369 88.386 C 269.321 91.262,270.176 93.796,270.269 94.017 C 270.362 94.238,270.729 95.324,271.083 96.430 C 271.438 97.536,271.933 99.030,272.184 99.749 C 272.435 100.468,272.797 101.554,272.989 102.162 C 273.180 102.770,273.407 103.449,273.491 103.670 C 273.677 104.155,273.662 104.110,275.933 110.910 C 276.930 113.896,277.823 116.521,277.917 116.742 C 278.065 117.089,278.259 117.699,279.025 120.211 C 279.259 120.980,277.290 120.885,276.935 120.111 C 276.660 119.512,271.880 105.141,269.995 99.246 C 269.359 97.255,268.717 95.309,268.569 94.922 C 268.078 93.638,266.063 87.228,266.063 86.950 C 266.063 86.141,265.384 87.103,265.049 88.386 C 264.902 88.953,264.591 89.880,264.241 90.799 C 264.157 91.021,263.941 91.699,263.762 92.308 C 263.582 92.916,263.312 93.731,263.161 94.118 C 263.010 94.505,262.366 96.450,261.730 98.441 C 260.426 102.522,258.127 109.593,257.808 110.508 C 257.692 110.840,257.409 111.699,257.179 112.418 C 256.949 113.137,256.251 115.264,255.628 117.144 L 254.496 120.563 253.543 120.624 C 252.908 120.665,252.589 120.606,252.589 120.448 C 252.589 120.191,253.468 117.391,253.909 116.239 C 254.058 115.852,254.916 113.273,255.815 110.508 C 256.715 107.743,257.518 105.344,257.598 105.178 C 257.679 105.013,258.041 103.927,258.402 102.765 C 258.764 101.604,259.151 100.427,259.262 100.151 C 259.374 99.874,260.633 96.119,262.060 91.805 C 263.488 87.491,264.746 83.805,264.857 83.613 C 264.967 83.421,265.058 83.122,265.058 82.949 C 265.058 82.536,265.625 81.448,265.840 81.448 C 265.933 81.448,266.150 81.833,266.324 82.303 M299.409 82.202 L 299.346 82.956 297.235 83.057 L 295.123 83.157 295.072 101.923 L 295.021 120.688 294.267 120.625 L 293.514 120.563 293.414 101.860 L 293.313 83.157 289.191 83.046 C 284.423 82.918,284.967 83.033,284.967 82.152 L 284.967 81.448 292.219 81.448 L 299.471 81.448 299.409 82.202 M303.635 82.012 C 303.740 82.749,303.327 83.057,302.234 83.057 C 301.185 83.057,300.636 82.509,300.926 81.753 C 301.147 81.178,303.550 81.408,303.635 82.012 M311.470 100.452 C 311.501 110.850,311.475 119.651,311.411 120.010 C 311.282 120.731,310.465 120.963,310.228 120.346 C 310.054 119.894,310.075 81.746,310.249 81.573 C 310.328 81.494,310.622 81.456,310.902 81.489 L 311.413 81.549 311.470 100.452 M318.503 96.078 L 318.451 110.709 317.697 110.771 L 316.943 110.834 316.943 96.141 L 316.943 81.448 317.749 81.448 L 318.555 81.448 318.503 96.078 M180.892 82.906 C 181.076 84.198,180.920 120.404,180.729 120.595 C 180.530 120.794,180.487 120.723,178.619 117.147 C 177.810 115.597,176.746 113.580,176.256 112.665 C 175.129 110.560,175.101 110.159,176.090 110.244 C 176.887 110.313,177.051 110.540,178.281 113.280 C 178.882 114.622,179.178 114.945,179.194 114.279 C 179.198 114.085,179.195 106.988,179.186 98.508 C 179.168 81.473,179.136 82.051,180.100 82.051 C 180.735 82.051,180.776 82.096,180.892 82.906 M122.827 106.247 L 122.878 120.688 122.123 120.626 L 121.368 120.563 121.267 113.927 L 121.166 107.290 113.927 107.190 L 106.687 107.089 106.687 106.385 L 106.687 105.681 113.927 105.574 C 117.908 105.516,121.189 105.448,121.217 105.423 C 121.244 105.399,121.267 102.363,121.267 98.676 C 121.267 91.501,121.247 91.655,122.165 91.745 L 122.775 91.805 122.827 106.247 M209.304 111.048 L 209.251 117.721 207.864 118.667 C 206.058 119.898,202.593 120.946,201.989 120.444 C 201.487 120.028,201.645 119.278,202.262 119.138 C 204.304 118.676,207.036 117.553,207.510 116.981 C 207.685 116.770,207.735 115.264,207.696 111.388 L 207.642 106.083 203.763 105.983 C 199.718 105.878,199.509 105.828,199.500 104.961 C 199.495 104.397,199.692 104.374,204.561 104.374 L 209.357 104.374 209.304 111.048 M141.734 109.653 C 141.975 109.949,142.144 110.514,143.189 114.530 C 143.621 116.189,144.122 118.044,144.303 118.653 C 144.840 120.462,144.819 120.563,143.900 120.563 C 142.957 120.563,142.993 120.640,141.776 116.038 C 141.225 113.957,140.916 112.830,140.673 112.016 C 140.299 110.763,140.140 109.700,140.303 109.538 C 140.533 109.308,141.517 109.387,141.734 109.653 M200.664 109.643 C 201.487 110.466,200.358 111.890,199.498 111.112 C 199.033 110.691,198.994 110.362,199.345 109.801 C 199.623 109.355,200.295 109.275,200.664 109.643 M265.224 110.759 C 265.444 111.506,266.003 113.565,266.465 115.334 C 266.928 117.104,267.389 118.814,267.489 119.135 C 267.861 120.318,267.744 120.664,266.975 120.664 C 266.114 120.664,265.981 120.439,265.364 117.945 C 265.108 116.913,264.842 115.977,264.774 115.865 C 264.705 115.754,264.568 115.272,264.469 114.795 C 264.370 114.317,264.051 112.996,263.760 111.859 C 263.169 109.547,263.192 109.402,264.148 109.402 C 264.808 109.402,264.832 109.432,265.224 110.759 M318.596 116.591 L 318.653 118.954 325.289 119.062 C 328.939 119.121,331.948 119.189,331.976 119.213 C 332.072 119.295,332.025 120.029,331.904 120.346 C 331.796 120.628,330.943 120.664,324.363 120.664 L 316.943 120.664 316.943 117.446 L 316.943 114.228 317.741 114.228 L 318.539 114.228 318.596 116.591 " stroke="none" fill="#c3c3c3" fill-rule="evenodd"></path></g></svg>