<svg id="svg" version="1.1" width="400" height="170.13574660633486" viewBox="0 0 400 170.13574660633486" xmlns="http://www.w3.org/2000/svg" xmlns:xlink="http://www.w3.org/1999/xlink" ><g id="svgg"><path id="path0" d="M73.245 21.721 C 69.600 21.825,63.094 22.984,60.230 24.041 C 51.286 27.340,45.864 36.188,45.247 48.490 C 44.646 60.486,42.871 66.451,38.109 72.480 C 34.968 76.457,35.032 78.115,38.363 79.035 C 41.076 79.785,41.419 80.076,41.142 81.398 C 40.697 83.523,40.779 83.945,41.887 85.222 C 42.554 85.991,42.663 86.385,42.361 86.948 C 41.690 88.202,41.850 89.634,42.790 90.781 C 44.179 92.476,44.696 94.644,44.131 96.407 C 43.313 98.961,43.769 102.020,45.148 103.231 C 46.577 104.486,50.493 104.994,54.615 104.460 C 65.761 103.017,70.568 107.092,73.587 120.544 C 74.063 122.665,74.185 123.239,74.518 124.953 C 74.889 126.860,74.960 126.945,76.138 126.884 L 76.989 126.840 76.937 125.649 C 76.908 124.994,76.728 123.692,76.535 122.756 C 76.342 121.821,76.128 120.749,76.058 120.374 C 75.218 115.842,72.795 109.754,70.754 107.051 C 67.392 102.598,63.012 101.190,55.260 102.067 C 54.351 102.170,52.525 102.254,51.203 102.254 C 46.083 102.254,45.461 101.432,46.451 95.970 C 46.827 93.896,46.460 92.151,45.209 90.057 C 44.451 88.789,44.380 88.583,44.474 87.925 C 44.531 87.525,44.622 86.776,44.676 86.261 L 44.775 85.325 43.874 84.426 C 42.907 83.460,42.700 82.428,43.207 81.096 C 43.865 79.365,42.483 77.414,40.599 77.414 C 40.475 77.414,40.057 77.184,39.668 76.902 C 38.563 76.102,38.646 75.702,40.493 72.924 C 41.336 71.657,42.025 70.588,42.025 70.548 C 42.025 70.508,42.446 69.763,42.960 68.892 C 43.475 68.021,43.896 67.252,43.896 67.184 C 43.896 67.116,44.155 66.499,44.472 65.814 C 45.296 64.029,45.594 63.292,45.764 62.614 C 45.847 62.285,46.038 61.595,46.189 61.080 C 46.341 60.566,46.576 59.739,46.711 59.244 C 47.075 57.917,47.448 54.797,47.802 50.106 C 47.908 48.703,48.103 46.789,48.235 45.853 C 48.366 44.917,48.507 43.883,48.547 43.556 C 49.219 38.098,52.770 31.880,56.836 29.043 C 58.566 27.835,60.143 26.881,60.655 26.731 C 60.936 26.649,61.686 26.384,62.323 26.141 C 63.721 25.608,66.315 24.954,68.056 24.695 C 68.758 24.591,70.120 24.390,71.083 24.248 C 74.531 23.740,85.369 24.307,88.593 25.164 C 88.948 25.259,89.813 25.466,90.515 25.625 C 91.217 25.784,92.631 26.251,93.659 26.662 C 99.128 28.853,103.208 31.656,106.941 35.788 C 109.326 38.428,111.463 42.839,112.147 46.533 C 112.234 47.001,112.378 47.754,112.469 48.205 C 112.688 49.303,112.679 54.260,112.454 56.487 C 111.773 63.218,110.413 67.342,105.890 76.393 C 103.239 81.698,102.420 83.573,100.984 87.622 C 100.735 88.324,100.422 89.150,100.287 89.457 C 100.153 89.764,100.043 90.087,100.043 90.174 C 100.043 91.057,97.768 94.767,96.640 95.724 C 91.811 99.821,85.015 97.489,83.198 91.111 C 82.748 89.532,82.764 89.381,83.411 89.052 C 88.908 86.261,86.006 78.154,80.134 79.897 C 75.842 81.172,75.583 87.230,79.742 89.065 C 80.376 89.345,80.457 89.456,80.718 90.410 C 81.458 93.118,82.707 96.081,83.662 97.397 C 86.028 100.660,91.891 101.297,96.038 98.743 C 99.532 96.591,100.932 94.455,103.117 87.937 C 104.603 83.506,105.882 80.645,108.129 76.733 C 110.417 72.748,111.575 70.216,112.800 66.525 C 113.535 64.309,113.752 63.415,114.679 58.783 C 115.481 54.773,114.885 46.048,113.534 42.025 C 112.196 38.042,111.652 37.025,108.848 33.262 C 105.027 28.135,98.447 24.760,87.723 22.425 C 84.692 21.765,79.903 21.532,73.245 21.721 M81.838 36.090 C 78.368 36.396,75.563 37.429,72.480 39.534 C 69.388 41.646,66.294 45.051,64.805 47.980 C 64.183 49.203,63.958 51.946,64.441 52.429 C 64.558 52.546,64.653 52.767,64.653 52.921 C 64.653 53.780,66.731 55.183,68.283 55.373 C 71.115 55.718,72.536 54.681,73.753 51.382 C 74.920 48.214,76.292 46.671,79.457 44.964 C 85.450 41.731,92.790 45.570,91.122 51.066 C 90.387 53.487,90.127 53.796,83.185 60.485 C 80.662 62.917,78.277 66.435,78.262 67.748 C 78.261 67.871,78.152 68.279,78.021 68.656 C 76.767 72.253,78.197 75.374,81.230 75.657 C 83.931 75.909,85.634 74.308,86.954 70.274 C 87.894 67.401,88.836 66.198,91.960 63.882 C 95.805 61.031,98.496 57.729,100.095 53.900 C 103.493 45.768,96.122 36.885,85.382 36.168 C 84.571 36.114,83.805 36.042,83.681 36.009 C 83.556 35.975,82.726 36.012,81.838 36.090 M180.422 55.860 C 180.373 55.988,180.356 56.660,180.383 57.353 L 180.434 58.613 181.285 58.658 C 181.752 58.682,182.308 58.741,182.519 58.789 L 182.903 58.876 182.860 70.144 L 182.816 81.412 181.504 81.462 L 180.191 81.511 180.090 82.057 C 180.034 82.357,180.012 83.063,180.041 83.624 L 180.094 84.645 184.496 84.690 C 189.602 84.743,189.366 84.815,189.366 83.210 C 189.366 81.677,189.221 81.520,187.750 81.460 L 186.559 81.412 186.514 75.854 L 186.469 70.297 187.080 69.793 C 189.378 67.899,193.021 67.729,194.578 69.443 C 195.552 70.515,195.566 70.613,195.571 76.223 L 195.576 81.412 194.470 81.461 C 193.076 81.522,192.939 81.687,192.939 83.313 C 192.939 84.860,192.552 84.754,197.958 84.693 L 202.212 84.645 202.263 83.457 C 202.346 81.523,202.344 81.520,200.807 81.462 L 199.490 81.412 199.384 76.053 C 199.266 70.075,199.257 69.995,198.443 68.271 C 196.774 64.732,191.739 63.876,187.812 66.462 C 187.191 66.871,186.637 67.205,186.581 67.205 C 186.524 67.205,186.458 64.621,186.434 61.463 L 186.389 55.721 183.450 55.674 C 181.089 55.637,180.494 55.674,180.422 55.860 M354.814 55.864 C 354.766 55.990,354.749 56.660,354.777 57.353 L 354.828 58.613 356.046 58.663 C 357.783 58.734,357.643 57.685,357.594 70.287 L 357.550 81.412 356.233 81.462 C 354.695 81.520,354.693 81.523,354.777 83.457 L 354.828 84.645 359.230 84.690 C 364.336 84.743,364.100 84.815,364.100 83.210 C 364.100 81.658,363.965 81.519,362.399 81.460 L 361.123 81.412 361.079 68.524 L 361.036 55.636 357.969 55.636 C 355.559 55.636,354.883 55.685,354.814 55.864 M171.504 56.104 C 169.387 56.486,169.086 59.834,171.093 60.673 C 172.290 61.173,173.450 60.859,174.099 59.858 C 175.374 57.891,173.847 55.681,171.504 56.104 M346.491 56.086 C 345.342 56.349,344.704 57.198,344.704 58.466 C 344.704 60.689,347.310 61.779,348.728 60.148 C 350.341 58.293,348.832 55.551,346.491 56.086 M137.848 56.350 C 137.725 56.473,137.644 57.069,137.644 57.848 C 137.644 59.426,137.749 59.549,139.098 59.549 L 140.144 59.549 140.425 60.230 C 140.815 61.173,141.117 61.975,141.642 63.462 C 141.890 64.164,142.196 65.006,142.322 65.334 C 142.449 65.661,142.755 66.504,143.003 67.205 C 143.251 67.907,143.557 68.749,143.684 69.077 C 143.933 69.723,144.584 71.547,145.050 72.905 C 145.210 73.373,145.438 73.986,145.556 74.266 C 145.675 74.547,145.978 75.389,146.230 76.138 C 146.483 76.886,146.751 77.652,146.827 77.839 C 146.903 78.026,147.081 78.524,147.223 78.945 C 147.693 80.345,148.889 83.616,149.135 84.177 L 149.378 84.730 151.835 84.730 C 154.439 84.730,154.828 84.619,154.828 83.877 C 154.828 83.702,154.904 83.512,154.998 83.454 C 155.091 83.396,155.168 83.231,155.168 83.087 C 155.168 82.943,155.276 82.583,155.407 82.289 C 155.539 81.994,155.776 81.370,155.936 80.902 C 156.095 80.434,156.284 79.898,156.357 79.711 C 156.429 79.524,156.607 79.064,156.751 78.690 C 156.896 78.316,157.217 77.435,157.464 76.733 C 158.007 75.195,159.190 71.944,159.507 71.119 C 159.633 70.791,159.939 69.949,160.187 69.247 C 160.435 68.545,160.741 67.703,160.868 67.376 C 160.994 67.048,161.300 66.206,161.548 65.504 C 161.796 64.802,162.103 63.960,162.230 63.632 C 162.357 63.305,162.709 62.348,163.012 61.506 C 163.722 59.531,163.705 59.549,164.853 59.549 C 166.102 59.549,166.227 59.402,166.227 57.931 C 166.227 56.028,166.513 56.133,161.463 56.186 L 157.125 56.231 157.125 57.848 L 157.125 59.464 158.231 59.549 C 159.624 59.656,159.611 60.224,158.135 63.596 C 158.000 63.903,157.890 64.300,157.890 64.479 C 157.890 64.657,157.814 64.851,157.720 64.909 C 157.627 64.966,157.550 65.132,157.550 65.276 C 157.550 65.420,157.442 65.779,157.310 66.074 C 157.178 66.369,156.915 67.069,156.726 67.631 C 156.537 68.192,156.143 69.302,155.851 70.098 C 155.558 70.893,155.175 71.965,154.998 72.480 C 154.821 72.994,154.435 74.066,154.140 74.862 C 153.844 75.657,153.527 76.576,153.434 76.903 C 153.341 77.231,153.195 77.572,153.111 77.661 C 153.026 77.749,152.956 77.994,152.956 78.203 C 152.956 78.413,152.888 78.627,152.805 78.678 C 152.722 78.730,152.603 78.983,152.541 79.241 C 151.944 81.743,151.878 81.683,150.422 77.329 C 149.765 75.364,149.146 73.526,149.048 73.245 C 148.478 71.619,147.643 69.110,147.567 68.793 C 147.517 68.589,146.840 66.523,146.061 64.200 C 144.508 59.569,144.507 59.549,145.732 59.549 C 146.983 59.549,147.001 59.524,147.001 57.848 C 147.001 56.642,146.949 56.333,146.732 56.250 C 146.192 56.042,138.064 56.135,137.848 56.350 M284.212 56.361 C 284.161 56.492,284.142 57.245,284.170 58.032 L 284.219 59.464 285.353 59.514 C 286.989 59.586,286.865 58.639,286.815 70.712 L 286.772 81.412 285.496 81.497 L 284.219 81.582 284.219 83.114 L 284.219 84.645 288.728 84.645 L 293.237 84.645 293.288 83.457 C 293.372 81.523,293.369 81.520,291.832 81.462 L 290.515 81.412 290.465 77.074 C 290.438 74.687,290.461 72.486,290.515 72.182 L 290.615 71.629 293.287 71.615 C 295.932 71.601,297.192 71.486,298.511 71.141 C 306.425 69.072,306.296 58.678,298.329 56.540 C 296.887 56.153,284.352 55.994,284.212 56.361 M332.454 59.726 C 330.326 60.701,330.509 60.417,330.413 62.898 L 330.328 65.079 329.222 65.122 C 327.263 65.199,327.328 65.144,327.386 66.658 L 327.435 67.971 328.704 68.022 C 330.555 68.096,330.413 67.552,330.413 74.552 C 330.413 81.605,330.589 82.789,331.839 84.126 C 333.085 85.459,339.004 85.575,339.502 84.277 C 339.801 83.499,338.968 81.879,338.421 82.172 C 337.297 82.773,334.891 82.404,334.241 81.529 C 333.859 81.016,333.644 72.653,333.934 69.587 L 334.071 68.141 336.247 68.094 L 338.423 68.046 338.373 66.647 L 338.324 65.249 336.159 65.201 L 333.994 65.154 333.947 62.238 C 333.894 58.923,333.961 59.036,332.454 59.726 M297.925 60.019 C 301.403 61.545,301.330 66.462,297.805 68.068 C 296.810 68.521,290.703 68.571,290.533 68.127 C 290.393 67.762,290.401 60.162,290.542 59.795 C 290.716 59.341,296.798 59.525,297.925 60.019 M211.229 65.085 C 209.048 65.497,206.635 66.446,206.434 66.971 C 206.325 67.255,206.989 68.805,207.347 69.102 C 207.509 69.237,207.725 69.213,208.149 69.012 C 208.468 68.861,208.846 68.737,208.991 68.737 C 209.135 68.737,209.293 68.671,209.342 68.592 C 209.713 67.991,213.777 67.945,215.090 68.526 C 216.418 69.113,217.373 71.346,216.959 72.894 L 216.826 73.393 214.102 73.349 C 208.175 73.253,205.213 75.201,205.047 79.305 C 204.842 84.335,210.892 87.002,215.631 83.971 C 216.796 83.226,216.929 83.223,216.929 83.946 C 216.929 84.709,217.010 84.730,219.987 84.730 C 222.853 84.730,222.715 84.806,222.711 83.227 C 222.707 81.574,222.655 81.497,221.518 81.497 L 220.532 81.497 220.457 75.585 C 220.399 71.066,220.326 69.532,220.144 69.077 C 218.801 65.707,215.577 64.264,211.229 65.085 M259.491 65.088 C 254.858 65.934,252.220 69.553,252.241 75.032 C 252.261 80.084,254.185 83.086,258.507 84.808 C 260.382 85.555,264.021 85.044,265.646 83.804 C 266.422 83.212,266.440 83.225,266.440 84.408 C 266.440 88.375,264.500 90.159,260.400 89.960 C 258.205 89.854,257.514 89.626,255.296 88.275 C 254.550 87.820,254.500 87.848,253.627 89.193 C 252.566 90.828,252.665 91.021,255.125 92.109 C 255.500 92.274,255.959 92.479,256.146 92.564 C 257.842 93.335,262.295 93.561,264.302 92.978 C 267.288 92.110,269.208 89.942,269.767 86.808 C 270.140 84.716,270.119 65.411,269.744 65.267 C 268.896 64.942,266.773 65.160,266.610 65.589 C 266.413 66.106,266.359 66.109,265.411 65.651 C 263.776 64.861,261.777 64.671,259.491 65.088 M312.888 65.085 C 310.682 65.528,308.246 66.473,308.060 66.957 C 308.006 67.097,308.175 67.650,308.434 68.187 C 308.980 69.317,308.986 69.318,310.846 68.635 C 314.953 67.126,318.282 68.374,318.606 71.543 C 318.667 72.136,318.672 72.800,318.617 73.018 L 318.518 73.416 315.831 73.359 C 309.739 73.231,306.752 75.267,306.728 79.562 C 306.699 84.644,313.267 87.121,317.668 83.689 C 318.382 83.132,318.673 83.273,318.673 84.173 L 318.673 84.738 321.438 84.692 L 324.202 84.645 324.252 83.213 C 324.309 81.575,324.260 81.504,323.070 81.500 L 322.277 81.497 322.195 75.840 C 322.107 69.797,322.049 69.329,321.198 67.882 C 319.762 65.439,316.534 64.353,312.888 65.085 M237.431 65.153 C 236.481 65.309,234.805 66.023,234.028 66.605 C 232.994 67.378,232.752 67.339,232.752 66.400 C 232.752 65.180,232.711 65.163,229.698 65.166 C 226.438 65.170,226.601 65.073,226.662 66.965 L 226.712 68.481 227.846 68.531 C 229.455 68.602,229.360 68.165,229.309 75.222 L 229.264 81.412 227.988 81.497 L 226.712 81.582 226.712 83.114 L 226.712 84.645 231.185 84.690 L 235.657 84.736 235.608 83.159 L 235.559 81.582 234.283 81.497 L 233.007 81.412 232.962 75.854 L 232.918 70.297 233.528 69.793 C 236.245 67.554,240.343 67.769,241.603 70.216 C 242.020 71.026,242.025 71.085,242.078 76.258 L 242.132 81.483 240.802 81.532 L 239.473 81.582 239.473 83.114 L 239.473 84.645 243.884 84.690 C 248.865 84.742,248.568 84.827,248.572 83.337 C 248.577 81.660,248.444 81.497,247.069 81.497 L 245.895 81.497 245.805 75.840 C 245.712 69.952,245.696 69.816,244.893 68.081 C 243.835 65.793,240.797 64.601,237.431 65.153 M167.794 65.308 C 167.635 65.409,167.588 65.866,167.624 66.965 L 167.673 68.481 168.807 68.531 C 170.417 68.602,170.321 68.165,170.270 75.222 L 170.225 81.412 169.290 81.456 C 167.498 81.541,167.568 81.469,167.624 83.161 L 167.673 84.645 172.267 84.645 L 176.861 84.645 176.911 83.414 C 176.983 81.642,176.883 81.522,175.285 81.462 L 173.969 81.412 173.924 73.516 C 173.894 68.031,173.822 65.550,173.691 65.392 C 173.476 65.133,168.189 65.058,167.794 65.308 M342.565 65.391 C 342.517 65.515,342.500 66.262,342.528 67.050 L 342.578 68.481 343.854 68.567 L 345.130 68.652 345.174 75.067 L 345.219 81.483 343.898 81.533 L 342.578 81.582 342.578 83.114 L 342.578 84.645 347.086 84.645 L 351.595 84.645 351.595 83.114 L 351.595 81.582 350.234 81.497 L 348.873 81.412 348.829 73.392 L 348.784 65.373 348.403 65.271 C 347.584 65.051,342.656 65.152,342.565 65.391 M263.775 68.218 C 264.413 68.401,265.275 68.749,265.688 68.991 L 266.440 69.432 266.433 74.911 L 266.427 80.391 265.710 80.916 C 262.862 82.999,258.213 82.176,256.851 79.347 C 256.676 78.986,256.468 78.560,256.387 78.401 C 256.306 78.242,256.123 77.553,255.980 76.870 C 254.763 71.036,258.628 66.746,263.775 68.218 M216.660 75.986 C 216.886 76.073,216.929 76.438,216.929 78.268 L 216.929 80.448 216.291 80.935 C 212.469 83.855,207.321 82.031,208.584 78.205 C 208.782 77.604,209.809 76.611,210.549 76.305 C 211.301 75.993,216.035 75.746,216.660 75.986 M318.497 76.131 C 318.905 76.623,318.661 80.202,318.184 80.709 C 316.718 82.268,313.297 82.848,311.556 81.833 C 309.303 80.520,309.566 77.507,312.028 76.422 C 313.213 75.899,318.121 75.678,318.497 76.131 " stroke="none" fill="#0b0b0b" fill-rule="evenodd"></path><path id="path1" d="M0.000 85.070 L 0.000 170.140 200.000 170.140 L 400.000 170.140 400.000 85.070 L 400.000 0.000 200.000 0.000 L 0.000 0.000 0.000 85.070 M82.518 21.783 C 86.050 22.059,86.553 22.141,90.940 23.160 C 98.758 24.974,105.510 28.783,108.848 33.262 C 111.652 37.025,112.196 38.042,113.534 42.025 C 114.885 46.048,115.481 54.773,114.679 58.783 C 113.752 63.415,113.535 64.309,112.800 66.525 C 111.575 70.216,110.417 72.748,108.129 76.733 C 105.882 80.645,104.603 83.506,103.117 87.937 C 100.932 94.455,99.532 96.591,96.038 98.743 C 91.891 101.297,86.028 100.660,83.662 97.397 C 82.707 96.081,81.458 93.118,80.718 90.410 C 80.457 89.456,80.376 89.345,79.742 89.065 C 75.583 87.230,75.842 81.172,80.134 79.897 C 86.006 78.154,88.908 86.261,83.411 89.052 C 82.764 89.381,82.748 89.532,83.198 91.111 C 85.015 97.489,91.811 99.821,96.640 95.724 C 97.768 94.767,100.043 91.057,100.043 90.174 C 100.043 90.087,100.153 89.764,100.287 89.457 C 100.422 89.150,100.735 88.324,100.984 87.622 C 102.420 83.573,103.239 81.698,105.890 76.393 C 110.413 67.342,111.773 63.218,112.454 56.487 C 112.679 54.260,112.688 49.303,112.469 48.205 C 112.378 47.754,112.234 47.001,112.147 46.533 C 111.463 42.839,109.326 38.428,106.941 35.788 C 103.208 31.656,99.128 28.853,93.659 26.662 C 92.631 26.251,91.217 25.784,90.515 25.625 C 89.813 25.466,88.948 25.259,88.593 25.164 C 85.369 24.307,74.531 23.740,71.083 24.248 C 70.120 24.390,68.758 24.591,68.056 24.695 C 66.315 24.954,63.721 25.608,62.323 26.141 C 61.686 26.384,60.936 26.649,60.655 26.731 C 60.143 26.881,58.566 27.835,56.836 29.043 C 52.770 31.880,49.219 38.098,48.547 43.556 C 48.507 43.883,48.366 44.917,48.235 45.853 C 48.103 46.789,47.908 48.703,47.802 50.106 C 47.448 54.797,47.075 57.917,46.711 59.244 C 46.576 59.739,46.341 60.566,46.189 61.080 C 46.038 61.595,45.847 62.285,45.764 62.614 C 45.594 63.292,45.296 64.029,44.472 65.814 C 44.155 66.499,43.896 67.116,43.896 67.184 C 43.896 67.252,43.475 68.021,42.960 68.892 C 42.446 69.763,42.025 70.508,42.025 70.548 C 42.025 70.588,41.336 71.657,40.493 72.924 C 38.646 75.702,38.563 76.102,39.668 76.902 C 40.057 77.184,40.475 77.414,40.599 77.414 C 42.483 77.414,43.865 79.365,43.207 81.096 C 42.700 82.428,42.907 83.460,43.874 84.426 L 44.775 85.325 44.676 86.261 C 44.622 86.776,44.531 87.525,44.474 87.925 C 44.380 88.583,44.451 88.789,45.209 90.057 C 46.460 92.151,46.827 93.896,46.451 95.970 C 45.461 101.432,46.083 102.254,51.203 102.254 C 52.525 102.254,54.351 102.170,55.260 102.067 C 63.012 101.190,67.392 102.598,70.754 107.051 C 72.795 109.754,75.218 115.842,76.058 120.374 C 76.128 120.749,76.342 121.821,76.535 122.756 C 76.728 123.692,76.908 124.994,76.937 125.649 L 76.989 126.840 76.138 126.884 C 74.960 126.945,74.889 126.860,74.518 124.953 C 74.185 123.239,74.063 122.665,73.587 120.544 C 72.355 115.052,71.174 111.983,69.343 109.508 C 65.818 104.745,62.143 103.486,54.615 104.460 C 50.493 104.994,46.577 104.486,45.148 103.231 C 43.769 102.020,43.313 98.961,44.131 96.407 C 44.696 94.644,44.179 92.476,42.790 90.781 C 41.850 89.634,41.690 88.202,42.361 86.948 C 42.663 86.385,42.554 85.991,41.887 85.222 C 40.779 83.945,40.697 83.523,41.142 81.398 C 41.419 80.076,41.076 79.785,38.363 79.035 C 35.032 78.115,34.968 76.457,38.109 72.480 C 42.871 66.451,44.646 60.486,45.247 48.490 C 45.633 40.793,47.542 35.237,51.473 30.370 C 55.596 25.264,60.044 23.272,70.268 21.951 C 72.708 21.636,79.460 21.543,82.518 21.783 M85.382 36.168 C 93.962 36.741,100.402 42.202,100.841 49.276 C 101.133 53.989,97.711 59.617,91.960 63.882 C 88.836 66.198,87.894 67.401,86.954 70.274 C 85.634 74.308,83.931 75.909,81.230 75.657 C 78.197 75.374,76.767 72.253,78.021 68.656 C 78.152 68.279,78.261 67.871,78.262 67.748 C 78.277 66.435,80.662 62.917,83.185 60.485 C 90.127 53.796,90.387 53.487,91.122 51.066 C 92.537 46.405,86.732 42.300,81.327 44.141 C 77.518 45.438,75.087 47.762,73.753 51.382 C 72.536 54.681,71.115 55.718,68.283 55.373 C 66.731 55.183,64.653 53.780,64.653 52.921 C 64.653 52.767,64.558 52.546,64.441 52.429 C 63.958 51.946,64.183 49.203,64.805 47.980 C 67.118 43.429,72.670 38.549,77.273 37.021 C 79.159 36.395,82.913 35.802,83.681 36.009 C 83.805 36.042,84.571 36.114,85.382 36.168 M186.434 61.463 C 186.458 64.621,186.524 67.205,186.581 67.205 C 186.637 67.205,187.191 66.871,187.812 66.462 C 191.739 63.876,196.774 64.732,198.443 68.271 C 199.257 69.995,199.266 70.075,199.384 76.053 L 199.490 81.412 200.807 81.462 C 202.344 81.520,202.346 81.523,202.263 83.457 L 202.212 84.645 197.958 84.693 C 192.552 84.754,192.939 84.860,192.939 83.313 C 192.939 81.687,193.076 81.522,194.470 81.461 L 195.576 81.412 195.571 76.223 C 195.566 70.613,195.552 70.515,194.578 69.443 C 193.021 67.729,189.378 67.899,187.080 69.793 L 186.469 70.297 186.514 75.854 L 186.559 81.412 187.750 81.460 C 189.221 81.520,189.366 81.677,189.366 83.210 C 189.366 84.815,189.602 84.743,184.496 84.690 L 180.094 84.645 180.041 83.624 C 180.012 83.063,180.034 82.357,180.090 82.057 L 180.191 81.511 181.504 81.462 L 182.816 81.412 182.860 70.144 L 182.903 58.876 182.519 58.789 C 182.308 58.741,181.752 58.682,181.285 58.658 L 180.434 58.613 180.383 57.353 C 180.309 55.493,180.075 55.621,183.450 55.674 L 186.389 55.721 186.434 61.463 M361.079 68.524 L 361.123 81.412 362.399 81.460 C 363.965 81.519,364.100 81.658,364.100 83.210 C 364.100 84.815,364.336 84.743,359.230 84.690 L 354.828 84.645 354.777 83.457 C 354.693 81.523,354.695 81.520,356.233 81.462 L 357.550 81.412 357.594 70.287 C 357.643 57.685,357.783 58.734,356.046 58.663 L 354.828 58.613 354.777 57.353 C 354.703 55.504,354.457 55.636,357.969 55.636 L 361.036 55.636 361.079 68.524 M173.687 56.551 C 175.824 58.483,173.748 61.782,171.093 60.673 C 169.086 59.834,169.387 56.486,171.504 56.104 C 172.250 55.970,173.276 56.180,173.687 56.551 M348.663 56.624 C 350.578 58.423,348.671 61.572,346.167 60.745 C 344.857 60.313,344.254 58.361,345.039 57.092 C 345.766 55.915,347.650 55.672,348.663 56.624 M146.732 56.250 C 146.949 56.333,147.001 56.642,147.001 57.848 C 147.001 59.524,146.983 59.549,145.732 59.549 C 144.507 59.549,144.508 59.569,146.061 64.200 C 146.840 66.523,147.517 68.589,147.567 68.793 C 147.643 69.110,148.478 71.619,149.048 73.245 C 149.146 73.526,149.765 75.364,150.422 77.329 C 151.878 81.683,151.944 81.743,152.541 79.241 C 152.603 78.983,152.722 78.730,152.805 78.678 C 152.888 78.627,152.956 78.413,152.956 78.203 C 152.956 77.994,153.026 77.749,153.111 77.661 C 153.195 77.572,153.341 77.231,153.434 76.903 C 153.527 76.576,153.844 75.657,154.140 74.862 C 154.435 74.066,154.821 72.994,154.998 72.480 C 155.175 71.965,155.558 70.893,155.851 70.098 C 156.143 69.302,156.537 68.192,156.726 67.631 C 156.915 67.069,157.178 66.369,157.310 66.074 C 157.442 65.779,157.550 65.420,157.550 65.276 C 157.550 65.132,157.627 64.966,157.720 64.909 C 157.814 64.851,157.890 64.657,157.890 64.479 C 157.890 64.300,158.000 63.903,158.135 63.596 C 159.611 60.224,159.624 59.656,158.231 59.549 L 157.125 59.464 157.125 57.848 L 157.125 56.231 161.463 56.186 C 166.513 56.133,166.227 56.028,166.227 57.931 C 166.227 59.402,166.102 59.549,164.853 59.549 C 163.705 59.549,163.722 59.531,163.012 61.506 C 162.709 62.348,162.357 63.305,162.230 63.632 C 162.103 63.960,161.796 64.802,161.548 65.504 C 161.300 66.206,160.994 67.048,160.868 67.376 C 160.741 67.703,160.435 68.545,160.187 69.247 C 159.939 69.949,159.633 70.791,159.507 71.119 C 159.190 71.944,158.007 75.195,157.464 76.733 C 157.217 77.435,156.896 78.316,156.751 78.690 C 156.607 79.064,156.429 79.524,156.357 79.711 C 156.284 79.898,156.095 80.434,155.936 80.902 C 155.776 81.370,155.539 81.994,155.407 82.289 C 155.276 82.583,155.168 82.943,155.168 83.087 C 155.168 83.231,155.091 83.396,154.998 83.454 C 154.904 83.512,154.828 83.702,154.828 83.877 C 154.828 84.619,154.439 84.730,151.835 84.730 L 149.378 84.730 149.135 84.177 C 148.889 83.616,147.693 80.345,147.223 78.945 C 147.081 78.524,146.903 78.026,146.827 77.839 C 146.751 77.652,146.483 76.886,146.230 76.138 C 145.978 75.389,145.675 74.547,145.556 74.266 C 145.438 73.986,145.210 73.373,145.050 72.905 C 144.584 71.547,143.933 69.723,143.684 69.077 C 143.557 68.749,143.251 67.907,143.003 67.205 C 142.755 66.504,142.449 65.661,142.322 65.334 C 142.196 65.006,141.890 64.164,141.642 63.462 C 141.117 61.975,140.815 61.173,140.425 60.230 L 140.144 59.549 139.098 59.549 C 137.749 59.549,137.644 59.426,137.644 57.848 C 137.644 57.069,137.725 56.473,137.848 56.350 C 138.064 56.135,146.192 56.042,146.732 56.250 M298.329 56.540 C 306.296 58.678,306.425 69.072,298.511 71.141 C 297.192 71.486,295.932 71.601,293.287 71.615 L 290.615 71.629 290.515 72.182 C 290.461 72.486,290.438 74.687,290.465 77.074 L 290.515 81.412 291.832 81.462 C 293.369 81.520,293.372 81.523,293.288 83.457 L 293.237 84.645 288.728 84.645 L 284.219 84.645 284.219 83.114 L 284.219 81.582 285.496 81.497 L 286.772 81.412 286.815 70.712 C 286.865 58.639,286.989 59.586,285.353 59.514 L 284.219 59.464 284.170 58.032 C 284.142 57.245,284.161 56.492,284.212 56.361 C 284.352 55.994,296.887 56.153,298.329 56.540 M333.947 62.238 L 333.994 65.154 336.159 65.201 L 338.324 65.249 338.373 66.647 L 338.423 68.046 336.247 68.094 L 334.071 68.141 333.934 69.587 C 333.644 72.653,333.859 81.016,334.241 81.529 C 334.891 82.404,337.297 82.773,338.421 82.172 C 338.968 81.879,339.801 83.499,339.502 84.277 C 339.004 85.575,333.085 85.459,331.839 84.126 C 330.589 82.789,330.413 81.605,330.413 74.552 C 330.413 67.552,330.555 68.096,328.704 68.022 L 327.435 67.971 327.386 66.658 C 327.328 65.144,327.263 65.199,329.222 65.122 L 330.328 65.079 330.413 62.898 C 330.509 60.417,330.326 60.701,332.454 59.726 C 333.961 59.036,333.894 58.923,333.947 62.238 M290.542 59.795 C 290.401 60.162,290.393 67.762,290.533 68.127 C 290.703 68.571,296.810 68.521,297.805 68.068 C 301.330 66.462,301.403 61.545,297.925 60.019 C 296.798 59.525,290.716 59.341,290.542 59.795 M215.183 65.015 C 217.791 65.632,219.245 66.822,220.144 69.077 C 220.326 69.532,220.399 71.066,220.457 75.585 L 220.532 81.497 221.518 81.497 C 222.655 81.497,222.707 81.574,222.711 83.227 C 222.715 84.806,222.853 84.730,219.987 84.730 C 217.010 84.730,216.929 84.709,216.929 83.946 C 216.929 83.223,216.796 83.226,215.631 83.971 C 210.892 87.002,204.842 84.335,205.047 79.305 C 205.213 75.201,208.175 73.253,214.102 73.349 L 216.826 73.393 216.959 72.894 C 217.373 71.346,216.418 69.113,215.090 68.526 C 213.777 67.945,209.713 67.991,209.342 68.592 C 209.293 68.671,209.135 68.737,208.991 68.737 C 208.846 68.737,208.468 68.861,208.149 69.012 C 207.441 69.348,207.274 69.237,206.729 68.074 C 206.258 67.069,206.326 66.816,207.181 66.380 C 209.527 65.184,213.226 64.553,215.183 65.015 M263.550 65.055 C 264.160 65.183,264.997 65.451,265.411 65.651 C 266.359 66.109,266.413 66.106,266.610 65.589 C 266.773 65.160,268.896 64.942,269.744 65.267 C 270.119 65.411,270.140 84.716,269.767 86.808 C 269.208 89.942,267.288 92.110,264.302 92.978 C 262.295 93.561,257.842 93.335,256.146 92.564 C 255.959 92.479,255.500 92.274,255.125 92.109 C 252.665 91.021,252.566 90.828,253.627 89.193 C 254.500 87.848,254.550 87.820,255.296 88.275 C 257.514 89.626,258.205 89.854,260.400 89.960 C 264.500 90.159,266.440 88.375,266.440 84.408 C 266.440 83.225,266.422 83.212,265.646 83.804 C 264.021 85.044,260.382 85.555,258.507 84.808 C 254.185 83.086,252.261 80.084,252.241 75.032 C 252.214 68.056,257.137 63.714,263.550 65.055 M316.831 65.011 C 318.788 65.415,320.352 66.444,321.198 67.882 C 322.049 69.329,322.107 69.797,322.195 75.840 L 322.277 81.497 323.070 81.500 C 324.260 81.504,324.309 81.575,324.252 83.213 L 324.202 84.645 321.438 84.692 L 318.673 84.738 318.673 84.173 C 318.673 83.273,318.382 83.132,317.668 83.689 C 313.267 87.121,306.699 84.644,306.728 79.562 C 306.752 75.267,309.739 73.231,315.831 73.359 L 318.518 73.416 318.617 73.018 C 319.032 71.363,318.181 69.268,316.798 68.541 C 315.629 67.927,312.645 67.974,310.846 68.635 C 308.986 69.318,308.980 69.317,308.434 68.187 C 307.753 66.778,307.909 66.593,310.506 65.731 C 313.046 64.888,315.102 64.653,316.831 65.011 M242.354 65.656 C 243.476 66.197,244.454 67.131,244.893 68.081 C 245.696 69.816,245.712 69.952,245.805 75.840 L 245.895 81.497 247.069 81.497 C 248.444 81.497,248.577 81.660,248.572 83.337 C 248.568 84.827,248.865 84.742,243.884 84.690 L 239.473 84.645 239.473 83.114 L 239.473 81.582 240.802 81.532 L 242.132 81.483 242.078 76.258 C 242.025 71.085,242.020 71.026,241.603 70.216 C 240.343 67.769,236.245 67.554,233.528 69.793 L 232.918 70.297 232.962 75.854 L 233.007 81.412 234.283 81.497 L 235.559 81.582 235.608 83.159 L 235.657 84.736 231.185 84.690 L 226.712 84.645 226.712 83.114 L 226.712 81.582 227.988 81.497 L 229.264 81.412 229.309 75.222 C 229.360 68.165,229.455 68.602,227.846 68.531 L 226.712 68.481 226.662 66.965 C 226.601 65.073,226.438 65.170,229.698 65.166 C 232.711 65.163,232.752 65.180,232.752 66.400 C 232.752 67.339,232.994 67.378,234.028 66.605 C 236.221 64.964,240.022 64.532,242.354 65.656 M173.691 65.392 C 173.822 65.550,173.894 68.031,173.924 73.516 L 173.969 81.412 175.285 81.462 C 176.883 81.522,176.983 81.642,176.911 83.414 L 176.861 84.645 172.267 84.645 L 167.673 84.645 167.624 83.161 C 167.568 81.469,167.498 81.541,169.290 81.456 L 170.225 81.412 170.270 75.222 C 170.321 68.165,170.417 68.602,168.807 68.531 L 167.673 68.481 167.624 66.965 C 167.588 65.866,167.635 65.409,167.794 65.308 C 168.189 65.058,173.476 65.133,173.691 65.392 M348.403 65.271 L 348.784 65.373 348.829 73.392 L 348.873 81.412 350.234 81.497 L 351.595 81.582 351.595 83.114 L 351.595 84.645 347.086 84.645 L 342.578 84.645 342.578 83.114 L 342.578 81.582 343.898 81.533 L 345.219 81.483 345.174 75.067 L 345.130 68.652 343.854 68.567 L 342.578 68.481 342.528 67.050 C 342.500 66.262,342.517 65.515,342.565 65.391 C 342.656 65.152,347.584 65.051,348.403 65.271 M259.974 68.197 C 256.660 69.430,255.124 72.765,255.980 76.870 C 256.123 77.553,256.306 78.242,256.387 78.401 C 256.468 78.560,256.676 78.986,256.851 79.347 C 258.213 82.176,262.862 82.999,265.710 80.916 L 266.427 80.391 266.433 74.911 L 266.440 69.432 265.688 68.991 C 263.960 67.978,261.486 67.635,259.974 68.197 M211.910 76.049 C 209.500 76.320,208.259 77.660,208.476 79.758 C 208.775 82.656,213.171 83.319,216.291 80.935 L 216.929 80.448 216.929 78.268 C 216.929 76.438,216.886 76.073,216.660 75.986 C 216.322 75.856,213.267 75.897,211.910 76.049 M313.654 76.045 C 310.803 76.353,309.321 78.378,310.327 80.593 C 311.355 82.858,316.097 82.928,318.184 80.709 C 318.661 80.202,318.905 76.623,318.497 76.131 C 318.276 75.865,315.737 75.820,313.654 76.045 " stroke="none" fill="#fbfbfb" fill-rule="evenodd"></path></g></svg>