<svg id="svg" version="1.1" width="400" height="150.54704595185996" viewBox="0 0 400 150.54704595185996" xmlns="http://www.w3.org/2000/svg" xmlns:xlink="http://www.w3.org/1999/xlink" ><g id="svgg"><path id="path0" d="M84.295 41.261 C 84.243 41.313,83.758 41.458,83.217 41.584 C 81.697 41.939,78.841 42.942,77.519 43.586 C 76.862 43.905,76.280 44.167,76.227 44.167 C 76.129 44.167,74.182 45.332,72.917 46.147 C 70.930 47.427,67.240 50.813,65.265 53.167 C 63.768 54.951,62.925 56.107,60.648 59.500 C 59.529 61.167,57.063 66.027,55.782 69.091 C 55.282 70.287,54.711 71.620,54.513 72.055 C 54.155 72.841,53.903 73.576,52.307 78.500 C 51.565 80.790,49.888 87.016,49.487 88.969 C 49.406 89.365,49.304 89.746,49.261 89.815 C 49.218 89.884,49.107 90.386,49.014 90.929 C 48.921 91.472,48.698 92.629,48.519 93.500 C 48.340 94.371,48.026 95.960,47.821 97.032 C 47.393 99.269,47.435 99.177,46.667 99.538 C 39.367 102.969,40.401 114.105,48.201 116.054 C 56.471 118.121,62.644 108.348,57.170 101.856 L 56.482 101.040 56.923 99.645 C 58.110 95.890,60.891 89.721,61.184 90.195 C 61.257 90.313,61.393 90.898,61.485 91.496 C 61.708 92.928,61.995 94.716,62.169 95.750 C 62.382 97.016,63.140 99.378,63.425 99.663 C 63.749 99.987,114.917 100.142,115.694 99.821 C 115.938 99.720,116.215 99.438,116.309 99.194 C 118.206 94.257,118.787 85.883,117.507 81.946 C 117.413 81.655,117.189 80.916,117.010 80.304 C 116.573 78.809,114.963 75.670,114.152 74.733 C 113.382 73.844,113.084 73.302,112.923 72.500 C 112.859 72.179,112.742 71.692,112.664 71.417 C 112.586 71.142,112.436 70.579,112.333 70.167 C 111.989 68.805,110.524 64.395,109.915 62.893 C 109.586 62.081,109.257 61.267,109.185 61.083 C 105.223 51.096,98.042 43.194,91.377 41.490 C 90.150 41.176,84.560 40.995,84.295 41.261 M89.814 43.154 C 90.145 43.239,90.754 43.395,91.167 43.501 C 96.663 44.910,102.964 51.888,106.819 60.833 C 107.036 61.337,107.344 62.050,107.504 62.417 C 108.241 64.114,109.473 67.433,110.081 69.362 C 110.573 70.925,110.442 70.953,108.303 69.740 C 105.851 68.350,100.848 66.712,98.167 66.423 C 97.662 66.369,96.650 66.254,95.917 66.169 C 88.739 65.333,81.337 65.945,75.628 67.848 C 73.514 68.553,73.442 68.501,74.451 67.001 C 76.206 64.393,78.566 62.031,81.333 60.112 C 83.184 58.829,83.667 58.378,83.667 57.931 C 83.667 57.472,83.028 56.834,82.691 56.957 C 81.443 57.411,76.821 61.108,75.313 62.856 C 74.890 63.348,74.318 64.012,74.043 64.333 C 73.305 65.195,71.961 67.311,71.608 68.168 C 71.439 68.580,71.197 69.158,71.072 69.453 C 70.941 69.762,70.541 70.177,70.130 70.432 C 68.282 71.579,66.750 72.967,65.453 74.671 C 64.648 75.728,63.151 78.149,62.989 78.656 C 62.914 78.891,62.728 79.421,62.576 79.833 C 62.045 81.274,61.333 84.420,61.333 85.325 C 61.333 85.550,60.817 86.600,60.186 87.658 C 58.943 89.743,57.532 92.401,57.173 93.333 C 57.049 93.654,56.767 94.325,56.545 94.823 C 56.324 95.322,55.916 96.409,55.640 97.240 C 54.699 100.070,54.920 99.909,52.963 99.186 C 52.437 98.992,51.465 98.805,50.796 98.770 C 49.413 98.698,49.462 98.791,49.813 96.917 C 51.496 87.919,53.526 80.390,56.060 73.750 C 58.775 66.635,62.061 60.373,65.147 56.434 C 67.953 52.852,72.561 48.426,74.333 47.610 C 74.471 47.546,74.921 47.274,75.333 47.004 C 76.203 46.435,79.238 44.927,80.234 44.568 C 82.008 43.929,82.366 43.815,83.115 43.654 C 83.556 43.558,84.361 43.409,84.904 43.322 C 85.448 43.235,85.929 43.127,85.974 43.082 C 86.119 42.937,89.192 42.995,89.814 43.154 M171.203 64.042 L 171.250 66.250 173.644 66.296 C 176.638 66.354,176.500 66.458,176.500 64.160 C 176.500 61.627,176.746 61.833,173.727 61.833 L 171.157 61.833 171.203 64.042 M180.374 74.954 L 180.417 88.083 183.000 88.083 L 185.583 88.083 185.667 82.500 L 185.750 76.917 186.196 76.167 C 188.327 72.584,192.547 72.102,193.641 75.317 C 193.772 75.702,193.834 77.730,193.836 81.650 C 193.839 89.009,193.492 88.185,196.562 88.129 L 199.083 88.083 199.127 81.508 C 199.174 74.393,199.144 74.080,198.241 72.243 C 196.151 67.989,190.483 67.220,186.891 70.703 L 185.672 71.885 185.628 66.901 L 185.583 61.917 182.957 61.871 L 180.331 61.825 180.374 74.954 M344.615 61.940 C 344.352 62.204,344.487 66.126,344.764 66.232 C 345.338 66.452,349.452 66.342,349.652 66.101 C 349.780 65.947,349.828 65.208,349.797 63.893 L 349.750 61.917 347.240 61.871 C 345.860 61.846,344.679 61.877,344.615 61.940 M353.768 62.097 C 353.532 62.712,353.658 87.785,353.898 87.984 C 354.054 88.114,354.899 88.161,356.523 88.130 L 358.917 88.083 358.959 74.958 L 359.002 61.833 356.436 61.833 C 354.249 61.833,353.854 61.872,353.768 62.097 M140.529 62.215 C 140.399 62.371,140.435 62.610,140.661 63.090 C 140.831 63.453,141.083 64.012,141.220 64.333 C 141.357 64.654,141.739 65.503,142.068 66.221 C 142.397 66.938,142.667 67.552,142.667 67.586 C 142.667 67.619,142.967 68.293,143.333 69.083 C 143.700 69.873,144.000 70.548,144.000 70.583 C 144.000 70.618,144.300 71.293,144.667 72.083 C 145.033 72.873,145.333 73.547,145.333 73.581 C 145.333 73.615,145.603 74.229,145.932 74.946 C 146.261 75.663,146.630 76.475,146.752 76.750 C 146.874 77.025,147.204 77.761,147.487 78.387 C 147.769 79.012,148.000 79.560,148.000 79.605 C 148.000 79.651,148.182 80.077,148.404 80.552 C 149.869 83.684,150.167 84.337,150.167 84.424 C 150.167 84.512,150.483 85.226,151.360 87.112 C 151.853 88.172,151.881 88.181,154.433 88.130 C 157.076 88.077,156.685 88.336,157.768 85.917 C 158.096 85.183,158.583 84.109,158.849 83.530 C 159.115 82.951,159.333 82.449,159.333 82.415 C 159.333 82.381,159.633 81.707,160.000 80.917 C 160.367 80.127,160.667 79.452,160.667 79.418 C 160.667 79.384,160.885 78.883,161.151 78.303 C 161.417 77.724,161.905 76.663,162.234 75.946 C 162.564 75.229,162.833 74.615,162.833 74.581 C 162.833 74.547,163.133 73.873,163.500 73.083 C 163.867 72.293,164.167 71.610,164.167 71.566 C 164.167 71.521,164.419 70.944,164.728 70.284 C 165.036 69.624,165.454 68.708,165.657 68.250 C 166.268 66.865,166.445 66.469,167.041 65.167 C 168.553 61.858,168.625 62.005,165.500 62.005 C 162.276 62.004,162.762 61.610,161.084 65.583 C 160.697 66.500,160.216 67.625,160.014 68.083 C 159.664 68.882,159.522 69.215,159.177 70.042 C 159.091 70.248,158.791 70.928,158.511 71.553 C 158.230 72.178,157.999 72.741,157.998 72.803 C 157.998 72.866,157.812 73.292,157.587 73.750 C 157.362 74.208,157.175 74.700,157.172 74.842 C 157.169 74.984,157.098 75.171,157.013 75.258 C 156.929 75.345,156.584 76.092,156.247 76.917 C 155.910 77.742,155.566 78.488,155.484 78.575 C 155.401 78.662,155.333 78.826,155.333 78.938 C 155.333 79.051,155.099 79.650,154.813 80.268 L 154.292 81.393 154.012 80.818 C 153.858 80.501,153.182 78.931,152.510 77.329 C 151.388 74.656,150.880 73.478,150.238 72.058 C 150.107 71.769,150.000 71.490,150.000 71.438 C 150.000 71.352,149.686 70.625,148.841 68.750 C 148.675 68.383,148.276 67.446,147.954 66.667 C 147.632 65.887,147.182 64.837,146.954 64.333 C 146.727 63.829,146.443 63.141,146.324 62.803 C 146.052 62.031,145.948 62.005,143.062 62.002 C 141.340 62.001,140.660 62.058,140.529 62.215 M284.458 62.107 C 284.030 62.231,284.002 87.901,284.430 88.066 C 284.987 88.279,289.285 88.176,289.477 87.945 C 289.597 87.800,289.676 86.314,289.705 83.653 L 289.750 79.583 292.417 79.477 C 296.901 79.299,298.703 78.715,300.648 76.812 C 304.459 73.083,303.414 65.724,298.734 63.323 C 296.423 62.137,296.247 62.111,290.250 62.065 C 287.225 62.041,284.619 62.060,284.458 62.107 M331.833 66.383 C 331.833 68.817,331.823 68.833,330.318 68.833 C 328.974 68.833,329.000 68.790,329.000 71.000 C 329.000 73.227,328.960 73.167,330.415 73.167 C 331.941 73.167,331.828 72.718,331.831 78.784 C 331.834 84.533,331.946 85.229,333.126 86.809 C 334.174 88.212,338.048 88.870,340.515 88.063 L 341.343 87.792 341.296 85.688 L 341.250 83.583 339.809 83.642 C 337.094 83.752,337.102 83.766,337.028 78.347 C 336.998 76.109,337.020 74.028,337.078 73.722 L 337.182 73.167 338.994 73.167 C 341.490 73.167,341.333 73.301,341.333 71.162 C 341.333 68.684,341.458 68.833,339.388 68.833 C 336.916 68.833,337.000 68.919,337.000 66.411 L 337.000 64.333 334.417 64.333 L 331.833 64.333 331.833 66.383 M294.995 67.264 C 297.119 67.959,298.155 70.609,297.144 72.760 C 296.398 74.348,295.095 74.862,291.981 74.797 L 289.750 74.750 289.705 71.087 C 289.680 69.073,289.697 67.329,289.741 67.212 C 289.868 66.883,293.952 66.923,294.995 67.264 M95.667 68.010 C 96.446 68.108,97.533 68.266,98.083 68.361 C 98.633 68.456,99.421 68.592,99.833 68.662 C 104.181 69.398,108.454 71.617,111.624 74.785 C 112.939 76.098,114.761 79.187,115.143 80.750 C 115.232 81.117,115.473 81.942,115.678 82.583 C 116.214 84.262,116.226 91.412,115.697 93.750 C 115.142 96.202,114.841 97.340,114.659 97.680 C 114.491 97.995,114.019 98.000,89.704 97.959 L 64.921 97.917 64.708 97.472 C 64.591 97.228,64.424 96.703,64.336 96.306 C 64.249 95.908,64.062 95.058,63.921 94.417 C 63.026 90.353,63.001 85.723,63.858 82.500 C 64.040 81.813,64.254 80.994,64.333 80.682 C 65.671 75.390,72.748 69.814,79.583 68.669 C 81.280 68.384,82.610 68.170,83.583 68.025 C 85.019 67.811,93.988 67.800,95.667 68.010 M210.250 68.595 C 203.473 70.201,200.407 76.710,203.305 83.333 C 204.124 85.203,207.364 88.000,208.713 88.000 C 208.834 88.000,209.005 88.066,209.092 88.148 C 209.665 88.683,213.284 88.676,214.500 88.138 C 215.538 87.678,216.034 87.395,216.412 87.044 C 216.942 86.552,217.167 86.567,217.167 87.094 C 217.167 88.120,217.286 88.167,219.889 88.167 C 221.516 88.167,222.330 88.104,222.467 87.967 C 222.679 87.755,222.773 69.639,222.566 69.097 C 222.479 68.872,222.085 68.833,219.906 68.833 L 217.348 68.833 217.245 69.458 C 217.062 70.557,217.063 70.557,216.127 69.868 C 214.725 68.834,211.860 68.213,210.250 68.595 M236.583 68.660 C 234.866 69.022,233.411 69.970,232.426 71.368 C 232.028 71.933,231.839 71.507,231.836 70.042 L 231.833 68.833 229.268 68.833 C 227.082 68.833,226.687 68.872,226.601 69.097 C 226.393 69.639,226.488 87.755,226.700 87.967 C 226.911 88.177,231.059 88.261,231.570 88.066 C 231.802 87.976,231.834 87.336,231.837 82.607 C 231.841 76.558,231.834 76.600,233.185 74.998 C 235.117 72.706,238.394 72.571,239.551 74.734 C 239.904 75.392,239.920 75.638,240.000 81.583 C 240.046 84.975,240.144 87.844,240.218 87.958 C 240.404 88.246,245.013 88.254,245.300 87.967 C 245.558 87.708,245.579 77.353,245.325 75.615 C 244.576 70.505,241.070 67.715,236.583 68.660 M256.083 68.645 C 255.145 68.822,254.187 69.179,253.462 69.621 C 253.120 69.829,252.773 70.000,252.691 70.000 C 252.323 70.000,250.325 72.175,249.782 73.167 C 248.104 76.228,248.041 80.573,249.630 83.619 C 252.134 88.420,259.216 90.183,262.697 86.872 L 263.310 86.289 263.424 86.895 C 263.684 88.282,262.991 89.991,261.904 90.645 C 260.335 91.589,255.952 91.689,254.294 90.819 C 253.549 90.428,253.500 90.547,253.500 92.744 C 253.500 95.145,253.400 95.001,255.414 95.524 C 256.947 95.922,260.449 95.949,261.808 95.572 C 265.651 94.508,267.328 93.178,268.481 90.284 C 268.611 89.959,268.667 86.645,268.667 79.325 L 268.667 68.833 266.083 68.833 L 263.500 68.833 263.497 69.542 C 263.494 70.621,263.332 70.737,262.661 70.146 C 261.231 68.886,258.322 68.223,256.083 68.645 M313.583 68.606 C 308.568 69.625,305.750 73.184,305.750 78.500 C 305.750 83.435,307.677 86.234,312.417 88.185 C 313.661 88.697,316.629 88.671,317.833 88.138 C 318.917 87.658,319.379 87.387,319.705 87.042 C 319.899 86.835,320.158 86.667,320.279 86.667 C 320.401 86.667,320.512 86.573,320.527 86.458 C 320.542 86.344,320.598 86.662,320.652 87.167 L 320.750 88.083 323.000 88.131 C 324.237 88.158,325.419 88.137,325.626 88.086 L 326.003 87.993 325.960 78.455 L 325.917 68.917 323.333 68.917 L 320.750 68.917 320.699 69.708 C 320.641 70.617,320.454 70.692,319.790 70.076 C 318.517 68.896,315.581 68.201,313.583 68.606 M171.207 78.458 L 171.250 88.083 173.737 88.130 C 175.615 88.165,176.258 88.124,176.360 87.963 C 176.515 87.719,176.552 69.497,176.399 69.097 C 176.313 68.872,175.918 68.833,173.731 68.833 L 171.164 68.833 171.207 78.458 M344.578 69.037 C 344.533 69.154,344.516 73.487,344.540 78.667 L 344.583 88.083 347.121 88.129 C 349.640 88.175,349.659 88.173,349.750 87.796 C 349.801 87.587,349.821 83.254,349.796 78.167 L 349.750 68.917 347.205 68.871 C 345.260 68.835,344.640 68.875,344.578 69.037 M213.901 73.406 C 218.911 74.711,218.688 82.709,213.616 83.647 C 210.200 84.278,207.510 81.976,207.503 78.417 C 207.496 74.864,210.492 72.518,213.901 73.406 M260.000 73.387 C 265.109 74.788,264.801 82.834,259.606 83.663 C 256.175 84.210,253.766 82.084,253.755 78.500 C 253.744 74.748,256.558 72.444,260.000 73.387 M317.256 73.411 C 322.313 74.728,322.012 82.826,316.875 83.672 C 313.511 84.226,310.833 81.890,310.833 78.402 C 310.833 74.909,313.889 72.534,317.256 73.411 M52.271 100.924 C 53.360 101.358,53.724 101.554,54.417 102.075 C 59.246 105.706,57.418 113.353,51.488 114.329 C 43.342 115.670,40.184 104.336,47.816 101.150 C 49.137 100.598,51.194 100.494,52.271 100.924 " stroke="none" fill="#717172" fill-rule="evenodd"></path><path id="path1" d="M0.000 75.250 L 0.000 150.500 200.000 150.500 L 400.000 150.500 400.000 75.250 L 400.000 0.000 200.000 0.000 L 0.000 0.000 0.000 75.250 M91.377 41.490 C 98.042 43.194,105.223 51.096,109.185 61.083 C 109.257 61.267,109.586 62.081,109.915 62.893 C 110.524 64.395,111.989 68.805,112.333 70.167 C 112.436 70.579,112.586 71.142,112.664 71.417 C 112.742 71.692,112.859 72.179,112.923 72.500 C 113.084 73.302,113.382 73.844,114.152 74.733 C 114.963 75.670,116.573 78.809,117.010 80.304 C 117.189 80.916,117.413 81.655,117.507 81.946 C 118.787 85.883,118.206 94.257,116.309 99.194 C 116.215 99.438,115.938 99.720,115.694 99.821 C 114.917 100.142,63.749 99.987,63.425 99.663 C 63.140 99.378,62.382 97.016,62.169 95.750 C 61.995 94.716,61.708 92.928,61.485 91.496 C 61.393 90.898,61.257 90.313,61.184 90.195 C 60.891 89.721,58.110 95.890,56.923 99.645 L 56.482 101.040 57.170 101.856 C 62.644 108.348,56.471 118.121,48.201 116.054 C 40.401 114.105,39.367 102.969,46.667 99.538 C 47.435 99.177,47.393 99.269,47.821 97.032 C 48.026 95.960,48.340 94.371,48.519 93.500 C 48.698 92.629,48.921 91.472,49.014 90.929 C 49.107 90.386,49.218 89.884,49.261 89.815 C 49.304 89.746,49.406 89.365,49.487 88.969 C 49.888 87.016,51.565 80.790,52.307 78.500 C 53.903 73.576,54.155 72.841,54.513 72.055 C 54.711 71.620,55.282 70.287,55.782 69.091 C 57.063 66.027,59.529 61.167,60.648 59.500 C 62.925 56.107,63.768 54.951,65.265 53.167 C 67.240 50.813,70.930 47.427,72.917 46.147 C 74.182 45.332,76.129 44.167,76.227 44.167 C 76.280 44.167,76.862 43.905,77.519 43.586 C 78.841 42.942,81.697 41.939,83.217 41.584 C 83.758 41.458,84.243 41.313,84.295 41.261 C 84.560 40.995,90.150 41.176,91.377 41.490 M85.974 43.082 C 85.929 43.127,85.448 43.235,84.904 43.322 C 84.361 43.409,83.556 43.558,83.115 43.654 C 82.366 43.815,82.008 43.929,80.234 44.568 C 79.238 44.927,76.203 46.435,75.333 47.004 C 74.921 47.274,74.471 47.546,74.333 47.610 C 72.561 48.426,67.953 52.852,65.147 56.434 C 62.061 60.373,58.775 66.635,56.060 73.750 C 53.526 80.390,51.496 87.919,49.813 96.917 C 49.462 98.791,49.413 98.698,50.796 98.770 C 51.465 98.805,52.437 98.992,52.963 99.186 C 54.920 99.909,54.699 100.070,55.640 97.240 C 55.916 96.409,56.324 95.322,56.545 94.823 C 56.767 94.325,57.049 93.654,57.173 93.333 C 57.532 92.401,58.943 89.743,60.186 87.658 C 60.817 86.600,61.333 85.550,61.333 85.325 C 61.333 84.420,62.045 81.274,62.576 79.833 C 62.728 79.421,62.914 78.891,62.989 78.656 C 63.151 78.149,64.648 75.728,65.453 74.671 C 66.750 72.967,68.282 71.579,70.130 70.432 C 70.541 70.177,70.941 69.762,71.072 69.453 C 71.197 69.158,71.439 68.580,71.608 68.168 C 71.961 67.311,73.305 65.195,74.043 64.333 C 74.318 64.012,74.890 63.348,75.313 62.856 C 76.821 61.108,81.443 57.411,82.691 56.957 C 83.028 56.834,83.667 57.472,83.667 57.931 C 83.667 58.378,83.184 58.829,81.333 60.112 C 78.566 62.031,76.206 64.393,74.451 67.001 C 73.442 68.501,73.514 68.553,75.628 67.848 C 81.337 65.945,88.739 65.333,95.917 66.169 C 96.650 66.254,97.662 66.369,98.167 66.423 C 100.848 66.712,105.851 68.350,108.303 69.740 C 110.442 70.953,110.573 70.925,110.081 69.362 C 109.473 67.433,108.241 64.114,107.504 62.417 C 107.344 62.050,107.036 61.337,106.819 60.833 C 102.964 51.888,96.663 44.910,91.167 43.501 C 90.754 43.395,90.145 43.239,89.814 43.154 C 89.192 42.995,86.119 42.937,85.974 43.082 M176.399 62.097 C 176.614 62.658,176.509 65.952,176.269 66.151 C 176.112 66.281,175.267 66.328,173.644 66.296 L 171.250 66.250 171.203 64.042 L 171.157 61.833 173.727 61.833 C 175.917 61.833,176.313 61.872,176.399 62.097 M185.628 66.901 L 185.672 71.885 186.891 70.703 C 190.483 67.220,196.151 67.989,198.241 72.243 C 199.144 74.080,199.174 74.393,199.127 81.508 L 199.083 88.083 196.562 88.129 C 193.492 88.185,193.839 89.009,193.836 81.650 C 193.834 77.730,193.772 75.702,193.641 75.317 C 192.547 72.102,188.327 72.584,186.196 76.167 L 185.750 76.917 185.667 82.500 L 185.583 88.083 183.000 88.083 L 180.417 88.083 180.374 74.954 L 180.331 61.825 182.957 61.871 L 185.583 61.917 185.628 66.901 M349.797 63.893 C 349.858 66.457,349.988 66.333,347.243 66.333 C 344.266 66.333,344.500 66.524,344.500 64.093 C 344.500 61.603,344.238 61.816,347.240 61.871 L 349.750 61.917 349.797 63.893 M358.959 74.958 L 358.917 88.083 356.523 88.130 C 354.899 88.161,354.054 88.114,353.898 87.984 C 353.658 87.785,353.532 62.712,353.768 62.097 C 353.854 61.872,354.249 61.833,356.436 61.833 L 359.002 61.833 358.959 74.958 M145.762 62.097 C 145.970 62.153,146.195 62.436,146.324 62.803 C 146.443 63.141,146.727 63.829,146.954 64.333 C 147.182 64.837,147.632 65.887,147.954 66.667 C 148.276 67.446,148.675 68.383,148.841 68.750 C 149.686 70.625,150.000 71.352,150.000 71.438 C 150.000 71.490,150.107 71.769,150.238 72.058 C 150.880 73.478,151.388 74.656,152.510 77.329 C 153.182 78.931,153.858 80.501,154.012 80.818 L 154.292 81.393 154.813 80.268 C 155.099 79.650,155.333 79.051,155.333 78.938 C 155.333 78.826,155.401 78.662,155.484 78.575 C 155.566 78.488,155.910 77.742,156.247 76.917 C 156.584 76.092,156.929 75.345,157.013 75.258 C 157.098 75.171,157.169 74.984,157.172 74.842 C 157.175 74.700,157.362 74.208,157.587 73.750 C 157.812 73.292,157.998 72.866,157.998 72.803 C 157.999 72.741,158.230 72.178,158.511 71.553 C 158.791 70.928,159.091 70.248,159.177 70.042 C 159.522 69.215,159.664 68.882,160.014 68.083 C 160.216 67.625,160.697 66.500,161.084 65.583 C 162.762 61.610,162.276 62.004,165.500 62.005 C 168.625 62.005,168.553 61.858,167.041 65.167 C 166.445 66.469,166.268 66.865,165.657 68.250 C 165.454 68.708,165.036 69.624,164.728 70.284 C 164.419 70.944,164.167 71.521,164.167 71.566 C 164.167 71.610,163.867 72.293,163.500 73.083 C 163.133 73.873,162.833 74.547,162.833 74.581 C 162.833 74.615,162.564 75.229,162.234 75.946 C 161.905 76.663,161.417 77.724,161.151 78.303 C 160.885 78.883,160.667 79.384,160.667 79.418 C 160.667 79.452,160.367 80.127,160.000 80.917 C 159.633 81.707,159.333 82.381,159.333 82.415 C 159.333 82.449,159.115 82.951,158.849 83.530 C 158.583 84.109,158.096 85.183,157.768 85.917 C 156.685 88.336,157.076 88.077,154.433 88.130 C 151.881 88.181,151.853 88.172,151.360 87.112 C 150.483 85.226,150.167 84.512,150.167 84.424 C 150.167 84.337,149.869 83.684,148.404 80.552 C 148.182 80.077,148.000 79.651,148.000 79.605 C 148.000 79.560,147.769 79.012,147.487 78.387 C 147.204 77.761,146.874 77.025,146.752 76.750 C 146.630 76.475,146.261 75.663,145.932 74.946 C 145.603 74.229,145.333 73.615,145.333 73.581 C 145.333 73.547,145.033 72.873,144.667 72.083 C 144.300 71.293,144.000 70.618,144.000 70.583 C 144.000 70.548,143.700 69.873,143.333 69.083 C 142.967 68.293,142.667 67.619,142.667 67.586 C 142.667 67.552,142.397 66.938,142.068 66.221 C 141.739 65.503,141.357 64.654,141.220 64.333 C 141.083 64.012,140.831 63.453,140.661 63.090 C 140.179 62.066,140.325 62.000,143.062 62.002 C 144.357 62.004,145.572 62.046,145.762 62.097 M296.917 62.548 C 302.343 64.599,304.498 69.831,302.036 74.978 C 300.626 77.926,297.765 79.264,292.417 79.477 L 289.750 79.583 289.705 83.653 C 289.676 86.314,289.597 87.800,289.477 87.945 C 289.285 88.176,284.987 88.279,284.430 88.066 C 284.002 87.901,284.030 62.231,284.458 62.107 C 285.642 61.764,295.793 62.123,296.917 62.548 M337.000 66.411 C 337.000 68.919,336.916 68.833,339.388 68.833 C 341.458 68.833,341.333 68.684,341.333 71.162 C 341.333 73.301,341.490 73.167,338.994 73.167 L 337.182 73.167 337.078 73.722 C 337.020 74.028,336.998 76.109,337.028 78.347 C 337.102 83.766,337.094 83.752,339.809 83.642 L 341.250 83.583 341.296 85.688 L 341.343 87.792 340.515 88.063 C 338.048 88.870,334.174 88.212,333.126 86.809 C 331.946 85.229,331.834 84.533,331.831 78.784 C 331.828 72.718,331.941 73.167,330.415 73.167 C 328.960 73.167,329.000 73.227,329.000 71.000 C 329.000 68.790,328.974 68.833,330.318 68.833 C 331.823 68.833,331.833 68.817,331.833 66.383 L 331.833 64.333 334.417 64.333 L 337.000 64.333 337.000 66.411 M289.741 67.212 C 289.697 67.329,289.680 69.073,289.705 71.087 L 289.750 74.750 291.981 74.797 C 295.095 74.862,296.398 74.348,297.144 72.760 C 298.155 70.609,297.119 67.959,294.995 67.264 C 293.952 66.923,289.868 66.883,289.741 67.212 M83.583 68.025 C 82.610 68.170,81.280 68.384,79.583 68.669 C 72.748 69.814,65.671 75.390,64.333 80.682 C 64.254 80.994,64.040 81.813,63.858 82.500 C 63.001 85.723,63.026 90.353,63.921 94.417 C 64.062 95.058,64.249 95.908,64.336 96.306 C 64.424 96.703,64.591 97.228,64.708 97.472 L 64.921 97.917 89.704 97.959 C 114.019 98.000,114.491 97.995,114.659 97.680 C 114.841 97.340,115.142 96.202,115.697 93.750 C 116.226 91.412,116.214 84.262,115.678 82.583 C 115.473 81.942,115.232 81.117,115.143 80.750 C 114.761 79.187,112.939 76.098,111.624 74.785 C 108.454 71.617,104.181 69.398,99.833 68.662 C 99.421 68.592,98.633 68.456,98.083 68.361 C 97.533 68.266,96.446 68.108,95.667 68.010 C 93.988 67.800,85.019 67.811,83.583 68.025 M214.488 68.941 C 214.907 69.095,215.645 69.512,216.127 69.868 C 217.063 70.557,217.062 70.557,217.245 69.458 L 217.348 68.833 219.906 68.833 C 222.085 68.833,222.479 68.872,222.566 69.097 C 222.773 69.639,222.679 87.755,222.467 87.967 C 222.330 88.104,221.516 88.167,219.889 88.167 C 217.286 88.167,217.167 88.120,217.167 87.094 C 217.167 86.567,216.942 86.552,216.412 87.044 C 216.034 87.395,215.538 87.678,214.500 88.138 C 213.284 88.676,209.665 88.683,209.092 88.148 C 209.005 88.066,208.834 88.000,208.713 88.000 C 207.364 88.000,204.124 85.203,203.305 83.333 C 200.407 76.710,203.473 70.201,210.250 68.595 C 210.917 68.437,213.743 68.668,214.488 68.941 M241.212 69.173 C 243.598 70.336,244.835 72.275,245.325 75.615 C 245.579 77.353,245.558 87.708,245.300 87.967 C 245.013 88.254,240.404 88.246,240.218 87.958 C 240.144 87.844,240.046 84.975,240.000 81.583 C 239.920 75.638,239.904 75.392,239.551 74.734 C 238.394 72.571,235.117 72.706,233.185 74.998 C 231.834 76.600,231.841 76.558,231.837 82.607 C 231.834 87.336,231.802 87.976,231.570 88.066 C 231.059 88.261,226.911 88.177,226.700 87.967 C 226.488 87.755,226.393 69.639,226.601 69.097 C 226.687 68.872,227.082 68.833,229.268 68.833 L 231.833 68.833 231.836 70.042 C 231.839 71.507,232.028 71.933,232.426 71.368 C 234.298 68.711,238.243 67.725,241.212 69.173 M261.026 69.152 C 261.607 69.419,262.343 69.866,262.661 70.146 C 263.332 70.737,263.494 70.621,263.497 69.542 L 263.500 68.833 266.083 68.833 L 268.667 68.833 268.667 79.325 C 268.667 86.645,268.611 89.959,268.481 90.284 C 267.328 93.178,265.651 94.508,261.808 95.572 C 260.449 95.949,256.947 95.922,255.414 95.524 C 253.400 95.001,253.500 95.145,253.500 92.744 C 253.500 90.547,253.549 90.428,254.294 90.819 C 255.952 91.689,260.335 91.589,261.904 90.645 C 262.991 89.991,263.684 88.282,263.424 86.895 L 263.310 86.289 262.697 86.872 C 259.216 90.183,252.134 88.420,249.630 83.619 C 248.041 80.573,248.104 76.228,249.782 73.167 C 250.325 72.175,252.323 70.000,252.691 70.000 C 252.773 70.000,253.120 69.829,253.462 69.621 C 255.495 68.381,258.889 68.171,261.026 69.152 M316.614 68.656 C 317.744 68.819,319.077 69.416,319.790 70.076 C 320.454 70.692,320.641 70.617,320.699 69.708 L 320.750 68.917 323.333 68.917 L 325.917 68.917 325.960 78.455 L 326.003 87.993 325.626 88.086 C 325.419 88.137,324.237 88.158,323.000 88.131 L 320.750 88.083 320.652 87.167 C 320.598 86.662,320.542 86.344,320.527 86.458 C 320.512 86.573,320.401 86.667,320.279 86.667 C 320.158 86.667,319.899 86.835,319.705 87.042 C 319.379 87.387,318.917 87.658,317.833 88.138 C 316.629 88.671,313.661 88.697,312.417 88.185 C 307.677 86.234,305.750 83.435,305.750 78.500 C 305.750 73.184,308.568 69.625,313.583 68.606 C 314.194 68.482,315.571 68.505,316.614 68.656 M176.399 69.097 C 176.552 69.497,176.515 87.719,176.360 87.963 C 176.258 88.124,175.615 88.165,173.737 88.130 L 171.250 88.083 171.207 78.458 L 171.164 68.833 173.731 68.833 C 175.918 68.833,176.313 68.872,176.399 69.097 M349.796 78.167 C 349.821 83.254,349.801 87.587,349.750 87.796 C 349.659 88.173,349.640 88.175,347.121 88.129 L 344.583 88.083 344.540 78.667 C 344.516 73.487,344.533 69.154,344.578 69.037 C 344.640 68.875,345.260 68.835,347.205 68.871 L 349.750 68.917 349.796 78.167 M211.198 73.419 C 205.920 74.707,206.336 82.785,211.726 83.663 C 215.036 84.202,217.495 81.966,217.495 78.417 C 217.495 74.774,214.709 72.563,211.198 73.419 M257.316 73.418 C 252.978 74.608,252.253 80.957,256.206 83.147 C 258.717 84.538,261.882 83.554,263.105 81.003 C 265.131 76.779,261.658 72.228,257.316 73.418 M314.577 73.409 C 309.308 74.701,309.682 82.788,315.050 83.661 C 318.564 84.233,320.976 81.908,320.805 78.115 C 320.648 74.624,317.947 72.583,314.577 73.409 M47.816 101.150 C 40.184 104.336,43.342 115.670,51.488 114.329 C 57.418 113.353,59.246 105.706,54.417 102.075 C 52.416 100.570,50.012 100.233,47.816 101.150 " stroke="none" fill="#040c2c" fill-rule="evenodd"></path></g></svg>