<svg id="svg" version="1.1" width="400" height="151.62790697674419" viewBox="0 0 400 151.62790697674419" xmlns="http://www.w3.org/2000/svg" xmlns:xlink="http://www.w3.org/1999/xlink" ><g id="svgg"><path id="path0" d="M35.333 35.248 C 30.957 36.122,27.952 38.938,26.833 43.213 C 26.394 44.886,26.377 107.563,26.815 108.667 C 26.942 108.987,27.235 109.727,27.466 110.311 C 28.704 113.432,32.032 115.928,35.464 116.309 C 38.190 116.612,97.995 116.571,99.667 116.264 C 103.713 115.523,106.757 112.564,107.739 108.417 C 108.123 106.792,108.071 43.639,107.685 42.667 C 107.557 42.346,107.336 41.783,107.194 41.417 C 106.023 38.401,102.542 35.693,99.167 35.170 C 97.410 34.898,36.713 34.972,35.333 35.248 M98.070 36.434 C 98.620 36.645,98.284 36.982,96.792 37.718 C 93.030 39.572,90.065 40.630,85.750 41.658 C 82.061 42.537,81.751 42.601,79.583 42.918 C 78.575 43.065,77.300 43.261,76.750 43.353 C 73.753 43.854,59.685 43.845,58.001 43.341 C 57.681 43.245,57.103 43.167,56.718 43.167 C 56.332 43.167,55.656 43.095,55.217 43.007 C 54.777 42.919,53.554 42.688,52.500 42.493 C 49.706 41.975,44.853 40.719,43.583 40.186 C 43.400 40.109,42.837 39.910,42.333 39.745 C 41.400 39.439,39.428 38.567,37.529 37.622 C 36.458 37.089,35.982 36.602,36.376 36.443 C 36.675 36.322,97.755 36.314,98.070 36.434 M35.083 37.762 C 38.459 39.716,43.110 41.544,48.417 43.002 C 49.306 43.247,51.231 43.608,53.583 43.972 C 54.225 44.071,55.275 44.237,55.917 44.340 C 56.558 44.444,57.871 44.592,58.833 44.669 C 59.796 44.747,61.258 44.890,62.083 44.986 C 63.968 45.206,70.539 45.208,72.750 44.991 C 73.667 44.900,75.279 44.759,76.333 44.677 C 77.387 44.594,78.512 44.446,78.832 44.347 C 79.152 44.248,79.677 44.167,79.999 44.168 C 80.320 44.169,81.071 44.059,81.667 43.924 C 82.262 43.788,83.387 43.556,84.167 43.407 C 87.737 42.725,92.681 41.177,94.539 40.159 C 94.699 40.071,94.900 40.000,94.986 40.000 C 95.073 40.000,95.630 39.775,96.224 39.500 C 96.818 39.225,97.347 39.000,97.399 39.000 C 97.451 39.000,97.984 38.700,98.583 38.333 C 99.182 37.967,99.737 37.667,99.816 37.667 C 99.895 37.667,100.053 37.554,100.167 37.417 C 100.503 37.012,101.203 37.127,102.260 37.760 C 104.215 38.931,105.288 40.251,106.209 42.621 L 106.583 43.583 106.583 75.833 C 106.583 103.032,106.547 108.175,106.351 108.667 C 104.712 112.779,101.688 115.200,99.736 113.963 C 99.047 113.526,96.902 112.418,95.833 111.948 C 95.513 111.806,94.912 111.543,94.500 111.363 C 93.643 110.989,90.403 109.861,88.917 109.420 C 88.367 109.257,87.750 109.061,87.546 108.984 C 86.317 108.522,81.876 107.659,78.667 107.260 C 77.521 107.117,75.715 106.888,74.653 106.750 C 67.564 105.832,54.481 106.863,47.083 108.923 C 46.625 109.051,45.800 109.280,45.250 109.432 C 44.150 109.736,41.889 110.561,40.333 111.227 C 40.012 111.364,39.150 111.719,38.417 112.016 C 37.683 112.313,36.408 112.966,35.583 113.467 C 33.815 114.540,33.501 114.568,32.205 113.760 C 30.326 112.588,29.171 111.154,28.304 108.917 L 27.917 107.917 27.917 75.667 L 27.917 43.417 28.358 42.388 C 29.237 40.335,30.428 38.932,32.414 37.609 C 33.287 37.027,33.873 37.061,35.083 37.762 M175.367 56.200 C 175.087 56.480,175.099 58.903,175.381 59.137 C 175.499 59.235,176.081 59.338,176.673 59.366 L 177.750 59.417 177.750 71.000 L 177.750 82.583 176.333 82.667 L 174.917 82.750 174.917 84.333 L 174.917 85.917 179.583 85.917 L 184.250 85.917 184.299 84.431 C 184.356 82.667,184.361 82.673,182.708 82.669 L 181.500 82.667 181.500 76.848 L 181.500 71.028 182.292 70.456 C 185.261 68.311,188.684 68.498,190.201 70.888 L 190.749 71.750 190.805 77.208 L 190.861 82.667 189.722 82.669 C 188.147 82.673,188.144 82.676,188.201 84.431 L 188.250 85.917 192.917 85.917 L 197.583 85.917 197.583 84.333 L 197.583 82.750 196.167 82.667 L 194.750 82.583 194.655 76.750 C 194.554 70.582,194.567 70.688,193.692 68.833 C 192.342 65.971,188.339 64.905,184.333 66.342 C 183.724 66.560,182.067 67.590,181.907 67.850 C 181.564 68.404,181.500 67.514,181.500 62.200 C 181.500 57.911,181.448 56.348,181.300 56.200 C 181.019 55.919,175.647 55.919,175.367 56.200 M354.571 56.222 C 354.524 56.345,354.508 57.076,354.534 57.847 L 354.583 59.250 355.874 59.299 C 357.510 59.360,357.350 58.013,357.296 71.333 L 357.250 82.583 355.917 82.667 L 354.583 82.750 354.583 84.333 L 354.583 85.917 358.917 85.964 C 364.473 86.024,364.000 86.174,364.000 84.348 C 364.000 82.621,364.048 82.667,362.236 82.667 L 361.000 82.667 361.000 69.597 C 361.000 62.409,360.954 56.409,360.899 56.264 C 360.760 55.902,354.709 55.862,354.571 56.222 M165.706 56.673 C 164.923 56.987,164.167 58.083,164.167 58.904 C 164.167 61.060,167.018 62.335,168.419 60.805 C 170.350 58.698,168.329 55.619,165.706 56.673 M345.583 56.609 C 344.603 56.873,343.877 58.280,344.085 59.513 C 344.404 61.398,346.897 62.173,348.201 60.791 C 350.069 58.810,348.243 55.893,345.583 56.609 M131.542 56.777 C 131.396 56.836,131.333 57.331,131.333 58.431 L 131.333 60.000 132.557 60.000 C 133.729 60.000,133.789 60.019,133.992 60.458 C 134.273 61.065,135.146 63.431,135.361 64.167 C 135.454 64.487,135.599 64.821,135.682 64.908 C 135.765 64.995,135.833 65.199,135.833 65.361 C 135.833 65.523,135.941 65.902,136.073 66.203 C 136.205 66.504,136.510 67.313,136.752 68.000 C 136.994 68.688,137.293 69.512,137.418 69.833 C 137.542 70.154,137.881 71.092,138.170 71.917 C 138.459 72.742,138.764 73.547,138.848 73.706 C 138.931 73.865,139.000 74.079,139.000 74.181 C 139.000 74.283,139.106 74.603,139.235 74.891 C 139.365 75.180,139.624 75.867,139.812 76.417 C 140.000 76.967,140.390 78.054,140.678 78.833 C 141.354 80.662,142.650 84.291,142.826 84.852 C 143.200 86.039,143.099 86.000,145.807 86.000 C 148.377 86.000,148.697 85.922,148.883 85.250 C 148.969 84.937,149.275 84.100,150.515 80.792 C 150.799 80.035,151.072 79.229,151.123 79.000 C 151.174 78.771,151.317 78.435,151.441 78.255 C 151.565 78.074,151.667 77.759,151.667 77.556 C 151.667 77.353,151.736 77.144,151.821 77.091 C 151.905 77.039,152.025 76.767,152.086 76.487 C 152.148 76.207,152.303 75.776,152.431 75.530 C 152.560 75.285,152.665 74.957,152.666 74.802 C 152.666 74.646,152.742 74.473,152.833 74.417 C 152.925 74.360,153.002 74.149,153.005 73.948 C 153.008 73.748,153.121 73.438,153.255 73.260 C 153.390 73.082,153.500 72.803,153.500 72.640 C 153.500 72.478,153.605 72.098,153.733 71.797 C 153.861 71.496,154.094 70.912,154.250 70.500 C 154.406 70.087,154.602 69.620,154.684 69.461 C 154.766 69.301,154.833 69.088,154.833 68.986 C 154.833 68.884,154.939 68.564,155.069 68.275 C 155.198 67.986,155.458 67.300,155.646 66.750 C 155.833 66.200,156.222 65.112,156.510 64.333 C 156.798 63.554,157.219 62.392,157.447 61.750 C 158.026 60.122,158.165 60.000,159.449 60.000 L 160.512 60.000 160.464 58.375 L 160.417 56.750 155.833 56.750 L 151.250 56.750 151.202 58.375 L 151.155 60.000 152.202 60.003 C 153.957 60.007,153.956 59.981,152.337 64.333 C 152.047 65.112,151.732 66.012,151.637 66.333 C 151.542 66.654,151.419 66.991,151.364 67.082 C 151.309 67.173,150.987 68.036,150.648 68.999 C 150.106 70.544,149.686 71.719,148.089 76.167 C 147.875 76.762,147.531 77.737,147.324 78.333 C 147.118 78.929,146.848 79.653,146.725 79.942 C 146.601 80.231,146.500 80.583,146.500 80.724 C 146.500 80.865,146.431 81.023,146.346 81.075 C 146.262 81.128,146.143 81.395,146.083 81.669 C 145.929 82.368,145.757 82.291,145.427 81.375 C 145.271 80.940,145.043 80.321,144.920 80.000 C 144.798 79.679,144.357 78.367,143.940 77.083 C 143.121 74.560,142.900 73.899,142.575 73.000 C 142.460 72.679,142.018 71.329,141.595 70.000 C 141.171 68.671,140.761 67.433,140.683 67.250 C 140.605 67.067,140.303 66.167,140.012 65.250 C 139.722 64.333,139.422 63.468,139.346 63.328 C 139.271 63.187,139.153 62.812,139.085 62.495 C 139.017 62.177,138.898 61.838,138.821 61.741 C 138.743 61.644,138.658 61.232,138.632 60.824 L 138.583 60.083 139.708 60.034 L 140.833 59.985 140.833 58.427 C 140.833 57.160,140.784 56.850,140.570 56.768 C 140.255 56.647,131.842 56.656,131.542 56.777 M281.909 56.877 C 281.859 57.006,281.841 57.742,281.868 58.514 L 281.917 59.917 283.112 60.000 C 283.769 60.046,284.369 60.146,284.445 60.222 C 284.521 60.299,284.583 65.361,284.583 71.472 L 284.583 82.583 283.250 82.667 L 281.917 82.750 281.917 84.333 L 281.917 85.917 286.500 85.917 L 291.083 85.917 291.083 84.333 L 291.083 82.750 289.750 82.667 L 288.417 82.583 288.417 77.583 L 288.417 72.583 291.833 72.477 C 297.603 72.298,300.193 71.146,301.789 68.050 C 304.147 63.476,301.703 58.524,296.333 56.998 C 295.169 56.667,282.032 56.557,281.909 56.877 M332.333 59.945 C 332.196 59.991,331.688 60.210,331.204 60.431 C 330.720 60.652,330.263 60.833,330.188 60.833 C 329.656 60.833,329.500 61.468,329.500 63.635 C 329.500 66.168,329.666 65.968,327.500 66.041 L 326.250 66.083 326.250 67.417 L 326.250 68.750 327.750 68.833 L 329.250 68.917 329.343 75.583 C 329.408 80.231,329.500 82.452,329.646 82.917 C 330.473 85.552,331.420 86.302,334.114 86.457 C 336.468 86.591,339.366 85.769,338.869 85.108 C 338.790 85.003,338.637 84.607,338.528 84.228 C 338.252 83.259,338.017 83.107,337.279 83.415 C 336.484 83.747,334.524 83.748,334.051 83.417 C 332.991 82.675,332.992 82.679,333.040 75.477 L 333.083 68.917 335.375 68.870 L 337.667 68.824 337.667 67.417 L 337.667 66.009 335.375 65.963 L 333.083 65.917 333.000 62.930 C 332.918 59.977,332.870 59.765,332.333 59.945 M294.568 60.252 C 299.217 61.063,300.273 66.352,296.250 68.681 L 295.417 69.164 291.875 69.165 L 288.333 69.167 288.333 64.847 C 288.333 62.471,288.379 60.409,288.434 60.264 C 288.572 59.904,292.530 59.897,294.568 60.252 M49.575 65.798 C 47.511 66.382,44.167 68.936,44.167 69.928 C 44.167 69.999,44.060 70.175,43.929 70.320 C 42.866 71.494,42.516 75.315,43.261 77.604 C 45.215 83.604,51.675 85.929,57.202 82.620 C 63.081 79.100,62.539 68.951,56.339 66.461 C 54.422 65.692,54.184 65.638,52.417 65.576 C 51.033 65.528,50.336 65.582,49.575 65.798 M79.904 65.799 C 75.895 66.928,73.090 70.664,73.132 74.821 C 73.200 81.641,80.466 86.258,86.362 83.228 C 86.695 83.057,87.228 82.781,87.547 82.616 C 93.033 79.766,92.955 70.343,87.417 66.875 C 85.449 65.642,82.143 65.169,79.904 65.799 M208.083 65.596 C 207.900 65.639,207.300 65.757,206.750 65.860 C 204.816 66.222,202.203 67.204,201.909 67.679 C 201.600 68.179,202.885 70.240,203.350 69.991 C 205.487 68.848,209.320 68.519,210.920 69.342 C 212.216 70.009,212.691 70.915,212.724 72.778 L 212.750 74.250 209.250 74.346 C 204.077 74.487,201.918 75.590,200.779 78.672 C 198.624 84.508,206.513 89.046,211.712 84.961 C 212.479 84.358,212.795 84.446,212.864 85.282 L 212.917 85.917 215.750 85.917 L 218.583 85.917 218.583 84.333 L 218.583 82.750 217.500 82.667 L 216.417 82.583 216.330 76.500 C 216.230 69.549,216.092 68.869,214.478 67.387 C 213.209 66.222,209.668 65.231,208.083 65.596 M257.333 65.665 C 256.921 65.742,256.246 65.859,255.833 65.926 C 248.829 67.054,246.460 78.588,252.116 84.021 C 255.006 86.797,259.867 87.275,262.757 85.069 C 263.167 84.756,263.540 84.500,263.585 84.500 C 263.971 84.500,263.473 87.945,262.922 89.083 C 261.514 91.993,256.141 92.289,252.250 89.672 C 251.487 89.159,251.313 89.247,250.459 90.576 C 249.379 92.257,249.674 92.627,253.250 94.087 C 256.761 95.520,262.364 94.860,264.651 92.744 C 267.181 90.403,267.349 89.354,267.293 76.200 L 267.250 66.083 265.500 66.083 C 263.812 66.083,263.748 66.097,263.697 66.458 C 263.631 66.921,263.508 66.925,262.764 66.486 C 261.561 65.776,258.898 65.374,257.333 65.665 M312.583 65.596 C 312.400 65.638,311.800 65.757,311.250 65.860 C 307.218 66.615,306.114 67.419,306.846 69.072 C 307.321 70.146,307.490 70.178,309.083 69.489 C 313.368 67.637,317.165 69.189,317.226 72.818 L 317.250 74.250 313.833 74.335 C 309.958 74.432,309.331 74.573,307.602 75.736 C 303.845 78.265,304.251 83.833,308.333 85.773 C 310.720 86.908,313.814 86.678,315.867 85.213 C 317.030 84.385,316.998 84.398,317.169 84.667 C 317.257 84.804,317.329 85.160,317.331 85.458 L 317.333 86.000 319.986 86.000 C 323.395 86.000,323.167 86.120,323.167 84.333 C 323.167 82.676,323.159 82.667,321.836 82.667 L 321.032 82.667 320.959 76.792 C 320.883 70.767,320.877 70.708,320.151 69.048 C 319.186 66.842,315.149 65.001,312.583 65.596 M233.750 65.906 C 232.594 66.145,231.006 66.829,230.228 67.422 C 229.334 68.104,229.026 67.991,228.967 66.958 L 228.917 66.083 225.833 66.083 L 222.750 66.083 222.750 67.667 L 222.750 69.250 223.944 69.299 C 225.621 69.367,225.510 68.866,225.460 76.186 L 225.417 82.583 224.223 82.632 C 222.707 82.694,222.640 82.777,222.701 84.526 L 222.750 85.917 227.381 85.961 L 232.012 86.005 231.964 84.378 L 231.917 82.750 230.583 82.667 L 229.250 82.583 229.202 77.250 C 229.140 70.386,229.118 70.446,232.083 69.330 C 234.484 68.427,236.964 69.150,238.096 71.083 L 238.583 71.917 238.583 77.250 L 238.583 82.583 237.250 82.667 L 235.917 82.750 235.917 84.333 L 235.917 85.917 240.500 85.917 L 245.083 85.917 245.083 84.333 L 245.083 82.750 243.750 82.667 L 242.417 82.583 242.328 76.667 C 242.237 70.618,242.213 70.397,241.505 68.890 C 240.354 66.442,237.140 65.205,233.750 65.906 M162.072 66.219 C 162.025 66.343,162.008 67.076,162.034 67.847 L 162.083 69.250 163.083 69.293 C 163.633 69.316,164.252 69.374,164.458 69.421 L 164.833 69.506 164.833 76.087 L 164.833 82.667 163.680 82.667 C 161.963 82.667,162.000 82.629,162.000 84.348 C 162.000 86.175,161.516 86.023,167.167 85.963 L 171.583 85.917 171.632 84.503 C 171.693 82.748,171.612 82.667,169.803 82.667 L 168.503 82.667 168.460 74.375 L 168.417 66.083 165.288 66.038 C 162.777 66.002,162.142 66.037,162.072 66.219 M341.906 66.219 C 341.858 66.343,341.841 67.076,341.868 67.847 L 341.917 69.250 343.250 69.333 L 344.583 69.417 344.627 76.035 L 344.670 82.653 343.294 82.702 L 341.917 82.750 341.917 84.333 L 341.917 85.917 346.250 85.964 C 351.782 86.023,351.333 86.157,351.333 84.447 C 351.333 82.725,351.278 82.667,349.635 82.667 L 348.336 82.667 348.293 74.375 L 348.250 66.083 345.121 66.038 C 342.610 66.002,341.975 66.037,341.906 66.219 M53.672 66.910 C 54.179 66.968,55.018 67.229,55.536 67.490 C 63.208 71.360,60.637 82.763,52.101 82.730 C 43.727 82.697,41.082 71.667,48.495 67.690 C 49.345 67.234,51.904 66.637,52.500 66.756 C 52.637 66.784,53.165 66.853,53.672 66.910 M84.083 66.920 C 85.015 67.040,86.620 67.789,87.300 68.419 C 87.546 68.647,87.797 68.833,87.859 68.833 C 88.511 68.833,90.128 71.960,90.339 73.629 C 91.510 82.864,78.996 86.462,75.137 78.000 C 74.025 75.563,74.283 72.752,75.840 70.343 C 76.618 69.139,78.446 67.710,79.739 67.295 C 80.639 67.006,82.403 66.699,82.833 66.756 C 83.063 66.787,83.625 66.860,84.083 66.920 M261.641 69.231 C 262.039 69.377,262.658 69.661,263.016 69.862 L 263.667 70.228 263.667 75.850 L 263.667 81.472 262.875 82.037 C 259.648 84.343,255.231 83.403,253.596 80.064 C 252.507 77.840,252.357 74.446,253.266 72.611 C 253.395 72.352,253.500 72.063,253.500 71.969 C 253.500 71.755,254.445 70.544,255.000 70.046 C 256.421 68.772,259.392 68.407,261.641 69.231 M212.660 77.242 C 213.054 77.717,212.822 81.397,212.368 81.880 C 210.922 83.417,207.448 84.044,205.693 83.084 C 202.796 81.499,203.711 77.597,207.083 77.156 C 208.833 76.927,212.445 76.983,212.660 77.242 M317.262 77.405 C 317.504 78.370,317.264 81.450,316.917 81.834 C 315.986 82.863,313.207 83.772,311.631 83.563 C 308.750 83.181,307.516 80.341,309.333 78.277 C 310.243 77.244,311.042 77.061,314.788 77.023 L 317.160 77.000 317.262 77.405 M71.750 108.001 C 79.662 108.364,89.060 110.346,94.252 112.749 C 98.034 114.499,98.571 114.818,98.260 115.129 C 98.072 115.317,36.461 115.358,36.167 115.171 C 35.098 114.491,44.573 110.619,49.500 109.722 C 49.729 109.680,50.367 109.543,50.917 109.418 C 57.184 107.991,62.960 107.598,71.750 108.001 " stroke="none" fill="#090909" fill-rule="evenodd"></path><path id="path1" d="M0.000 75.750 L 0.000 151.500 200.000 151.500 L 400.000 151.500 400.000 75.750 L 400.000 0.000 200.000 0.000 L 0.000 0.000 0.000 75.750 M99.167 35.170 C 102.542 35.693,106.023 38.401,107.194 41.417 C 107.336 41.783,107.557 42.346,107.685 42.667 C 108.071 43.639,108.123 106.792,107.739 108.417 C 106.757 112.564,103.713 115.523,99.667 116.264 C 97.995 116.571,38.190 116.612,35.464 116.309 C 32.032 115.928,28.704 113.432,27.466 110.311 C 27.235 109.727,26.942 108.987,26.815 108.667 C 26.377 107.563,26.394 44.886,26.833 43.213 C 27.952 38.938,30.957 36.122,35.333 35.248 C 36.713 34.972,97.410 34.898,99.167 35.170 M36.376 36.443 C 35.982 36.602,36.458 37.089,37.529 37.622 C 39.428 38.567,41.400 39.439,42.333 39.745 C 42.837 39.910,43.400 40.109,43.583 40.186 C 44.853 40.719,49.706 41.975,52.500 42.493 C 53.554 42.688,54.777 42.919,55.217 43.007 C 55.656 43.095,56.332 43.167,56.718 43.167 C 57.103 43.167,57.681 43.245,58.001 43.341 C 59.685 43.845,73.753 43.854,76.750 43.353 C 77.300 43.261,78.575 43.065,79.583 42.918 C 81.751 42.601,82.061 42.537,85.750 41.658 C 90.065 40.630,93.030 39.572,96.792 37.718 C 98.284 36.982,98.620 36.645,98.070 36.434 C 97.755 36.314,36.675 36.322,36.376 36.443 M32.414 37.609 C 30.428 38.932,29.237 40.335,28.358 42.388 L 27.917 43.417 27.917 75.667 L 27.917 107.917 28.304 108.917 C 29.171 111.154,30.326 112.588,32.205 113.760 C 33.501 114.568,33.815 114.540,35.583 113.467 C 36.408 112.966,37.683 112.313,38.417 112.016 C 39.150 111.719,40.012 111.364,40.333 111.227 C 41.889 110.561,44.150 109.736,45.250 109.432 C 45.800 109.280,46.625 109.051,47.083 108.923 C 54.481 106.863,67.564 105.832,74.653 106.750 C 75.715 106.888,77.521 107.117,78.667 107.260 C 81.876 107.659,86.317 108.522,87.546 108.984 C 87.750 109.061,88.367 109.257,88.917 109.420 C 90.403 109.861,93.643 110.989,94.500 111.363 C 94.912 111.543,95.513 111.806,95.833 111.948 C 96.902 112.418,99.047 113.526,99.736 113.963 C 101.688 115.200,104.712 112.779,106.351 108.667 C 106.547 108.175,106.583 103.032,106.583 75.833 L 106.583 43.583 106.209 42.621 C 105.288 40.251,104.215 38.931,102.260 37.760 C 101.203 37.127,100.503 37.012,100.167 37.417 C 100.053 37.554,99.895 37.667,99.816 37.667 C 99.737 37.667,99.182 37.967,98.583 38.333 C 97.984 38.700,97.451 39.000,97.399 39.000 C 97.347 39.000,96.818 39.225,96.224 39.500 C 95.630 39.775,95.073 40.000,94.986 40.000 C 94.900 40.000,94.699 40.071,94.539 40.159 C 92.681 41.177,87.737 42.725,84.167 43.407 C 83.387 43.556,82.262 43.788,81.667 43.924 C 81.071 44.059,80.320 44.169,79.999 44.168 C 79.677 44.167,79.152 44.248,78.832 44.347 C 78.512 44.446,77.387 44.594,76.333 44.677 C 75.279 44.759,73.667 44.900,72.750 44.991 C 70.539 45.208,63.968 45.206,62.083 44.986 C 61.258 44.890,59.796 44.747,58.833 44.669 C 57.871 44.592,56.558 44.444,55.917 44.340 C 55.275 44.237,54.225 44.071,53.583 43.972 C 51.231 43.608,49.306 43.247,48.417 43.002 C 43.110 41.544,38.459 39.716,35.083 37.762 C 33.873 37.061,33.287 37.027,32.414 37.609 M181.300 56.200 C 181.448 56.348,181.500 57.911,181.500 62.200 C 181.500 67.514,181.564 68.404,181.907 67.850 C 182.067 67.590,183.724 66.560,184.333 66.342 C 188.339 64.905,192.342 65.971,193.692 68.833 C 194.567 70.688,194.554 70.582,194.655 76.750 L 194.750 82.583 196.167 82.667 L 197.583 82.750 197.583 84.333 L 197.583 85.917 192.917 85.917 L 188.250 85.917 188.201 84.431 C 188.144 82.676,188.147 82.673,189.722 82.669 L 190.861 82.667 190.805 77.208 L 190.749 71.750 190.201 70.888 C 188.684 68.498,185.261 68.311,182.292 70.456 L 181.500 71.028 181.500 76.848 L 181.500 82.667 182.708 82.669 C 184.361 82.673,184.356 82.667,184.299 84.431 L 184.250 85.917 179.583 85.917 L 174.917 85.917 174.917 84.333 L 174.917 82.750 176.333 82.667 L 177.750 82.583 177.750 71.000 L 177.750 59.417 176.673 59.366 C 176.081 59.338,175.499 59.235,175.381 59.137 C 175.099 58.903,175.087 56.480,175.367 56.200 C 175.647 55.919,181.019 55.919,181.300 56.200 M360.899 56.264 C 360.954 56.409,361.000 62.409,361.000 69.597 L 361.000 82.667 362.236 82.667 C 364.048 82.667,364.000 82.621,364.000 84.348 C 364.000 86.174,364.473 86.024,358.917 85.964 L 354.583 85.917 354.583 84.333 L 354.583 82.750 355.917 82.667 L 357.250 82.583 357.296 71.333 C 357.350 58.013,357.510 59.360,355.874 59.299 L 354.583 59.250 354.534 57.847 C 354.508 57.076,354.524 56.345,354.571 56.222 C 354.709 55.862,360.760 55.902,360.899 56.264 M167.626 56.655 C 168.714 56.967,169.470 58.372,169.164 59.511 C 168.526 61.879,165.578 62.212,164.515 60.037 C 163.487 57.934,165.282 55.983,167.626 56.655 M348.272 57.245 C 349.214 58.325,349.186 59.746,348.201 60.791 C 346.450 62.647,343.470 60.754,344.153 58.219 C 344.625 56.465,347.084 55.883,348.272 57.245 M140.570 56.768 C 140.784 56.850,140.833 57.160,140.833 58.427 L 140.833 59.985 139.708 60.034 L 138.583 60.083 138.632 60.824 C 138.658 61.232,138.743 61.644,138.821 61.741 C 138.898 61.838,139.017 62.177,139.085 62.495 C 139.153 62.812,139.271 63.187,139.346 63.328 C 139.422 63.468,139.722 64.333,140.012 65.250 C 140.303 66.167,140.605 67.067,140.683 67.250 C 140.761 67.433,141.171 68.671,141.595 70.000 C 142.018 71.329,142.460 72.679,142.575 73.000 C 142.900 73.899,143.121 74.560,143.940 77.083 C 144.357 78.367,144.798 79.679,144.920 80.000 C 145.043 80.321,145.271 80.940,145.427 81.375 C 145.757 82.291,145.929 82.368,146.083 81.669 C 146.143 81.395,146.262 81.128,146.346 81.075 C 146.431 81.023,146.500 80.865,146.500 80.724 C 146.500 80.583,146.601 80.231,146.725 79.942 C 146.848 79.653,147.118 78.929,147.324 78.333 C 147.531 77.737,147.875 76.762,148.089 76.167 C 149.686 71.719,150.106 70.544,150.648 68.999 C 150.987 68.036,151.309 67.173,151.364 67.082 C 151.419 66.991,151.542 66.654,151.637 66.333 C 151.732 66.012,152.047 65.112,152.337 64.333 C 153.956 59.981,153.957 60.007,152.202 60.003 L 151.155 60.000 151.202 58.375 L 151.250 56.750 155.833 56.750 L 160.417 56.750 160.464 58.375 L 160.512 60.000 159.449 60.000 C 158.165 60.000,158.026 60.122,157.447 61.750 C 157.219 62.392,156.798 63.554,156.510 64.333 C 156.222 65.112,155.833 66.200,155.646 66.750 C 155.458 67.300,155.198 67.986,155.069 68.275 C 154.939 68.564,154.833 68.884,154.833 68.986 C 154.833 69.088,154.766 69.301,154.684 69.461 C 154.602 69.620,154.406 70.087,154.250 70.500 C 154.094 70.912,153.861 71.496,153.733 71.797 C 153.605 72.098,153.500 72.478,153.500 72.640 C 153.500 72.803,153.390 73.082,153.255 73.260 C 153.121 73.438,153.008 73.748,153.005 73.948 C 153.002 74.149,152.925 74.360,152.833 74.417 C 152.742 74.473,152.666 74.646,152.666 74.802 C 152.665 74.957,152.560 75.285,152.431 75.530 C 152.303 75.776,152.148 76.207,152.086 76.487 C 152.025 76.767,151.905 77.039,151.821 77.091 C 151.736 77.144,151.667 77.353,151.667 77.556 C 151.667 77.759,151.565 78.074,151.441 78.255 C 151.317 78.435,151.174 78.771,151.123 79.000 C 151.072 79.229,150.799 80.035,150.515 80.792 C 149.275 84.100,148.969 84.937,148.883 85.250 C 148.697 85.922,148.377 86.000,145.807 86.000 C 143.099 86.000,143.200 86.039,142.826 84.852 C 142.650 84.291,141.354 80.662,140.678 78.833 C 140.390 78.054,140.000 76.967,139.812 76.417 C 139.624 75.867,139.365 75.180,139.235 74.891 C 139.106 74.603,139.000 74.283,139.000 74.181 C 139.000 74.079,138.931 73.865,138.848 73.706 C 138.764 73.547,138.459 72.742,138.170 71.917 C 137.881 71.092,137.542 70.154,137.418 69.833 C 137.293 69.512,136.994 68.688,136.752 68.000 C 136.510 67.313,136.205 66.504,136.073 66.203 C 135.941 65.902,135.833 65.523,135.833 65.361 C 135.833 65.199,135.765 64.995,135.682 64.908 C 135.599 64.821,135.454 64.487,135.361 64.167 C 135.146 63.431,134.273 61.065,133.992 60.458 C 133.789 60.019,133.729 60.000,132.557 60.000 L 131.333 60.000 131.333 58.431 C 131.333 57.331,131.396 56.836,131.542 56.777 C 131.842 56.656,140.255 56.647,140.570 56.768 M296.333 56.998 C 301.703 58.524,304.147 63.476,301.789 68.050 C 300.193 71.146,297.603 72.298,291.833 72.477 L 288.417 72.583 288.417 77.583 L 288.417 82.583 289.750 82.667 L 291.083 82.750 291.083 84.333 L 291.083 85.917 286.500 85.917 L 281.917 85.917 281.917 84.333 L 281.917 82.750 283.250 82.667 L 284.583 82.583 284.583 71.472 C 284.583 65.361,284.521 60.299,284.445 60.222 C 284.369 60.146,283.769 60.046,283.112 60.000 L 281.917 59.917 281.868 58.514 C 281.841 57.742,281.859 57.006,281.909 56.877 C 282.032 56.557,295.169 56.667,296.333 56.998 M333.000 62.930 L 333.083 65.917 335.375 65.963 L 337.667 66.009 337.667 67.417 L 337.667 68.824 335.375 68.870 L 333.083 68.917 333.040 75.477 C 332.992 82.679,332.991 82.675,334.051 83.417 C 334.524 83.748,336.484 83.747,337.279 83.415 C 338.017 83.107,338.252 83.259,338.528 84.228 C 338.637 84.607,338.790 85.003,338.869 85.108 C 339.366 85.769,336.468 86.591,334.114 86.457 C 331.420 86.302,330.473 85.552,329.646 82.917 C 329.500 82.452,329.408 80.231,329.343 75.583 L 329.250 68.917 327.750 68.833 L 326.250 68.750 326.250 67.417 L 326.250 66.083 327.500 66.041 C 329.666 65.968,329.500 66.168,329.500 63.635 C 329.500 61.468,329.656 60.833,330.188 60.833 C 330.263 60.833,330.720 60.652,331.204 60.431 C 333.014 59.604,332.903 59.448,333.000 62.930 M288.434 60.264 C 288.379 60.409,288.333 62.471,288.333 64.847 L 288.333 69.167 291.875 69.165 L 295.417 69.164 296.250 68.681 C 299.297 66.917,299.518 62.717,296.660 60.912 C 295.360 60.092,288.702 59.566,288.434 60.264 M55.083 65.966 C 55.542 66.145,56.107 66.368,56.339 66.461 C 59.946 67.910,62.315 73.365,61.091 77.407 C 58.411 86.258,46.123 86.394,43.261 77.604 C 42.516 75.315,42.866 71.494,43.929 70.320 C 44.060 70.175,44.167 69.999,44.167 69.928 C 44.167 68.936,47.511 66.382,49.575 65.798 C 50.945 65.410,53.890 65.500,55.083 65.966 M85.417 65.962 C 87.350 66.728,87.453 66.794,88.941 68.240 C 93.110 72.292,92.351 80.120,87.547 82.616 C 87.228 82.781,86.695 83.057,86.362 83.228 C 78.993 87.015,70.691 79.097,73.803 71.250 C 75.550 66.844,81.178 64.282,85.417 65.962 M211.500 65.888 C 213.197 66.348,214.551 67.245,215.284 68.394 C 216.225 69.869,216.236 69.955,216.330 76.500 L 216.417 82.583 217.500 82.667 L 218.583 82.750 218.583 84.333 L 218.583 85.917 215.750 85.917 L 212.917 85.917 212.864 85.282 C 212.795 84.446,212.479 84.358,211.712 84.961 C 206.513 89.046,198.624 84.508,200.779 78.672 C 201.918 75.590,204.077 74.487,209.250 74.346 L 212.750 74.250 212.724 72.778 C 212.691 70.915,212.216 70.009,210.920 69.342 C 209.320 68.519,205.487 68.848,203.350 69.991 C 202.885 70.240,201.600 68.179,201.909 67.679 C 202.203 67.204,204.816 66.222,206.750 65.860 C 207.300 65.757,207.900 65.639,208.083 65.596 C 208.584 65.481,210.648 65.657,211.500 65.888 M261.296 65.906 C 261.779 66.034,262.440 66.295,262.764 66.486 C 263.508 66.925,263.631 66.921,263.697 66.458 C 263.748 66.097,263.812 66.083,265.500 66.083 L 267.250 66.083 267.293 76.200 C 267.349 89.354,267.181 90.403,264.651 92.744 C 262.364 94.860,256.761 95.520,253.250 94.087 C 249.674 92.627,249.379 92.257,250.459 90.576 C 251.313 89.247,251.487 89.159,252.250 89.672 C 256.141 92.289,261.514 91.993,262.922 89.083 C 263.473 87.945,263.971 84.500,263.585 84.500 C 263.540 84.500,263.167 84.756,262.757 85.069 C 259.867 87.275,255.006 86.797,252.116 84.021 C 246.460 78.588,248.829 67.054,255.833 65.926 C 256.246 65.859,256.921 65.742,257.333 65.665 C 258.278 65.489,260.149 65.603,261.296 65.906 M315.913 65.859 C 317.906 66.402,319.527 67.622,320.151 69.048 C 320.877 70.708,320.883 70.767,320.959 76.792 L 321.032 82.667 321.836 82.667 C 323.159 82.667,323.167 82.676,323.167 84.333 C 323.167 86.120,323.395 86.000,319.986 86.000 L 317.333 86.000 317.331 85.458 C 317.329 85.160,317.257 84.804,317.169 84.667 C 316.998 84.398,317.030 84.385,315.867 85.213 C 309.881 89.482,302.045 82.942,306.126 77.083 C 307.486 75.132,309.411 74.445,313.833 74.335 L 317.250 74.250 317.226 72.818 C 317.165 69.189,313.368 67.637,309.083 69.489 C 307.490 70.178,307.321 70.146,306.846 69.072 C 306.114 67.419,307.218 66.615,311.250 65.860 C 311.800 65.757,312.400 65.638,312.583 65.596 C 313.069 65.483,315.134 65.646,315.913 65.859 M237.289 65.858 C 239.308 66.344,240.819 67.432,241.505 68.890 C 242.213 70.397,242.237 70.618,242.328 76.667 L 242.417 82.583 243.750 82.667 L 245.083 82.750 245.083 84.333 L 245.083 85.917 240.500 85.917 L 235.917 85.917 235.917 84.333 L 235.917 82.750 237.250 82.667 L 238.583 82.583 238.583 77.250 L 238.583 71.917 238.096 71.083 C 236.964 69.150,234.484 68.427,232.083 69.330 C 229.118 70.446,229.140 70.386,229.202 77.250 L 229.250 82.583 230.583 82.667 L 231.917 82.750 231.964 84.378 L 232.012 86.005 227.381 85.961 L 222.750 85.917 222.701 84.526 C 222.640 82.777,222.707 82.694,224.223 82.632 L 225.417 82.583 225.460 76.186 C 225.510 68.866,225.621 69.367,223.944 69.299 L 222.750 69.250 222.750 67.667 L 222.750 66.083 225.833 66.083 L 228.917 66.083 228.967 66.958 C 229.026 67.991,229.334 68.104,230.228 67.422 C 232.004 66.067,235.211 65.357,237.289 65.858 M168.460 74.375 L 168.503 82.667 169.803 82.667 C 171.612 82.667,171.693 82.748,171.632 84.503 L 171.583 85.917 167.167 85.963 C 161.516 86.023,162.000 86.175,162.000 84.348 C 162.000 82.629,161.963 82.667,163.680 82.667 L 164.833 82.667 164.833 76.087 L 164.833 69.506 164.458 69.421 C 164.252 69.374,163.633 69.316,163.083 69.293 L 162.083 69.250 162.034 67.847 C 161.964 65.827,161.679 65.986,165.288 66.038 L 168.417 66.083 168.460 74.375 M348.293 74.375 L 348.336 82.667 349.635 82.667 C 351.278 82.667,351.333 82.725,351.333 84.447 C 351.333 86.157,351.782 86.023,346.250 85.964 L 341.917 85.917 341.917 84.333 L 341.917 82.750 343.294 82.702 L 344.670 82.653 344.627 76.035 L 344.583 69.417 343.250 69.333 L 341.917 69.250 341.868 67.847 C 341.797 65.827,341.513 65.986,345.121 66.038 L 348.250 66.083 348.293 74.375 M51.083 66.917 C 44.919 68.028,42.192 74.226,45.605 79.366 C 49.201 84.778,57.526 83.580,59.722 77.333 C 61.261 72.956,58.039 67.405,53.672 66.910 C 53.165 66.853,52.637 66.784,52.500 66.756 C 52.362 66.729,51.725 66.801,51.083 66.917 M81.333 66.916 C 79.390 67.302,79.029 67.463,77.441 68.650 C 75.552 70.063,74.500 72.274,74.500 74.833 C 74.500 81.864,82.811 85.394,87.992 80.564 C 90.271 78.440,91.096 74.514,89.863 71.658 C 89.540 70.909,88.067 68.833,87.859 68.833 C 87.797 68.833,87.546 68.647,87.300 68.419 C 86.620 67.789,85.015 67.040,84.083 66.920 C 83.625 66.860,83.063 66.787,82.833 66.756 C 82.604 66.726,81.929 66.798,81.333 66.916 M257.902 68.847 C 256.835 68.949,255.700 69.418,255.000 70.046 C 254.445 70.544,253.500 71.755,253.500 71.969 C 253.500 72.063,253.395 72.352,253.266 72.611 C 252.357 74.446,252.507 77.840,253.596 80.064 C 255.231 83.403,259.648 84.343,262.875 82.037 L 263.667 81.472 263.667 75.850 L 263.667 70.228 263.016 69.862 C 261.486 69.003,259.791 68.666,257.902 68.847 M207.083 77.156 C 203.711 77.597,202.796 81.499,205.693 83.084 C 207.448 84.044,210.922 83.417,212.368 81.880 C 212.822 81.397,213.054 77.717,212.660 77.242 C 212.445 76.983,208.833 76.927,207.083 77.156 M311.583 77.156 C 307.443 77.697,307.482 83.013,311.631 83.563 C 313.207 83.772,315.986 82.863,316.917 81.834 C 317.264 81.450,317.504 78.370,317.262 77.405 L 317.160 77.000 314.788 77.023 C 313.484 77.036,312.042 77.096,311.583 77.156 M60.083 108.014 C 57.201 108.247,53.722 108.779,50.917 109.418 C 50.367 109.543,49.729 109.680,49.500 109.722 C 44.573 110.619,35.098 114.491,36.167 115.171 C 36.461 115.358,98.072 115.317,98.260 115.129 C 98.571 114.818,98.034 114.499,94.252 112.749 C 86.542 109.182,71.486 107.095,60.083 108.014 " stroke="none" fill="#fbfbfb" fill-rule="evenodd"></path></g></svg>