<svg id="svg" version="1.1" width="400" height="142.98642533936652" viewBox="0 0 400 142.98642533936652" xmlns="http://www.w3.org/2000/svg" xmlns:xlink="http://www.w3.org/1999/xlink" ><g id="svgg"><path id="path0" d="M76.417 32.914 C 72.670 33.894,69.699 35.105,67.127 36.700 C 66.417 37.140,65.793 37.500,65.739 37.500 C 65.495 37.500,63.037 39.492,61.140 41.227 C 58.395 43.739,56.394 46.151,53.309 50.667 C 50.743 54.423,46.865 62.683,45.055 68.250 C 44.638 69.533,44.051 71.335,43.752 72.253 C 43.452 73.172,43.046 74.597,42.848 75.420 C 42.650 76.243,42.375 77.329,42.236 77.833 C 42.097 78.337,41.919 79.012,41.839 79.333 C 41.759 79.654,41.577 80.367,41.435 80.917 C 41.161 81.981,40.833 83.450,40.505 85.083 C 40.395 85.633,40.203 86.571,40.080 87.167 C 39.957 87.763,39.733 88.925,39.584 89.750 C 39.093 92.456,39.128 92.386,37.874 93.132 C 28.636 98.628,34.037 112.433,44.464 109.977 C 50.878 108.466,53.532 99.851,49.036 95.134 L 48.449 94.517 48.743 93.550 C 49.667 90.508,50.370 88.721,51.798 85.792 C 53.370 82.566,53.322 82.588,53.659 84.932 C 54.111 88.074,54.384 89.496,54.763 90.687 C 54.985 91.385,55.167 92.083,55.167 92.236 C 55.167 92.390,55.351 92.699,55.576 92.924 L 55.985 93.333 82.753 93.333 C 99.571 93.333,109.633 93.274,109.821 93.173 C 110.231 92.954,110.828 91.228,111.552 88.167 C 112.474 84.272,112.491 77.949,111.587 74.833 C 111.468 74.421,111.239 73.633,111.079 73.083 C 110.651 71.610,108.789 68.042,107.948 67.083 C 107.185 66.214,107.025 65.845,106.572 63.917 C 106.422 63.275,106.238 62.563,106.165 62.333 C 106.091 62.104,105.789 61.129,105.494 60.167 C 104.950 58.391,104.295 56.492,103.914 55.583 C 103.799 55.308,103.499 54.558,103.248 53.917 C 97.200 38.475,86.669 30.231,76.417 32.914 M83.628 34.844 C 87.409 35.853,92.256 39.354,94.536 42.723 C 94.918 43.288,95.718 44.425,96.314 45.250 C 98.384 48.115,101.725 55.280,103.514 60.688 C 104.438 63.484,104.433 63.503,102.922 62.593 C 100.514 61.144,98.334 60.274,94.750 59.335 C 87.056 57.318,74.687 57.743,67.863 60.260 C 66.200 60.873,66.095 60.692,67.199 59.123 C 69.386 56.014,71.403 54.002,74.257 52.084 C 76.468 50.597,76.925 49.913,76.224 49.138 C 75.832 48.705,75.630 48.747,74.371 49.529 C 69.794 52.369,64.553 58.264,63.581 61.667 C 63.456 62.102,62.870 62.833,62.645 62.833 C 62.307 62.833,60.144 64.487,59.202 65.465 C 56.830 67.930,55.050 71.049,54.186 74.256 C 53.886 75.367,53.810 75.767,53.504 77.833 C 53.403 78.511,53.105 79.185,52.361 80.417 C 50.325 83.787,48.712 87.201,47.497 90.706 C 47.156 91.691,46.773 92.651,46.647 92.841 L 46.417 93.186 45.449 92.758 C 44.399 92.293,42.392 91.937,41.740 92.101 C 41.266 92.220,41.219 91.921,41.497 90.554 C 41.586 90.112,41.820 88.925,42.015 87.917 C 42.566 85.078,42.798 83.996,43.396 81.500 C 43.538 80.904,43.766 79.929,43.901 79.333 C 44.037 78.737,44.455 77.200,44.832 75.917 C 45.208 74.633,45.619 73.208,45.746 72.750 C 46.822 68.840,49.400 62.392,51.676 57.917 C 53.968 53.412,55.698 50.540,57.416 48.391 C 57.844 47.855,58.314 47.267,58.460 47.083 C 63.300 41.003,70.093 36.453,76.333 35.111 C 77.021 34.963,77.883 34.773,78.250 34.688 C 79.523 34.395,82.238 34.473,83.628 34.844 M177.700 53.033 C 177.461 53.272,177.434 54.971,177.660 55.565 C 177.806 55.949,177.916 55.989,178.951 56.034 L 180.083 56.083 180.126 67.375 L 180.169 78.667 178.852 78.667 C 177.312 78.667,177.333 78.642,177.333 80.397 C 177.333 82.090,177.078 82.000,181.908 81.997 C 186.870 81.994,186.527 82.127,186.465 80.236 L 186.417 78.750 185.123 78.701 L 183.829 78.653 183.873 72.968 L 183.917 67.283 184.811 66.668 C 187.502 64.815,190.933 65.078,192.250 67.237 L 192.750 68.056 192.800 73.362 L 192.851 78.667 191.856 78.667 C 190.317 78.667,190.333 78.649,190.333 80.333 C 190.333 82.148,189.937 82.001,194.805 81.998 C 199.934 81.995,199.523 82.147,199.464 80.271 L 199.417 78.750 198.061 78.702 L 196.706 78.654 196.623 73.202 C 196.536 67.425,196.448 66.704,195.648 65.168 C 193.956 61.921,188.629 61.227,184.916 63.769 L 183.833 64.510 183.833 58.935 C 183.833 55.869,183.788 53.242,183.732 53.097 C 183.601 52.756,178.036 52.697,177.700 53.033 M352.111 52.944 C 351.974 53.082,351.968 55.114,352.103 55.618 C 352.193 55.952,352.323 55.991,353.476 56.035 L 354.750 56.083 354.793 67.375 L 354.836 78.667 353.590 78.667 C 352.087 78.667,352.000 78.767,352.000 80.493 C 352.000 82.035,351.889 82.000,356.772 82.000 C 361.532 82.000,361.333 82.072,361.333 80.348 C 361.333 78.756,361.276 78.698,359.659 78.633 L 358.417 78.583 358.374 65.708 L 358.331 52.833 355.277 52.833 C 353.597 52.833,352.172 52.883,352.111 52.944 M167.991 53.714 C 166.412 55.083,166.791 57.374,168.698 57.988 C 171.244 58.808,173.027 55.481,170.969 53.749 C 170.287 53.175,168.635 53.156,167.991 53.714 M342.697 53.886 C 340.912 55.727,342.542 58.662,344.985 58.004 C 346.697 57.543,347.287 55.354,346.064 54.000 C 345.208 53.053,343.558 52.997,342.697 53.886 M135.000 54.990 C 135.000 56.720,134.998 56.717,136.485 56.833 L 137.554 56.917 137.950 58.000 C 138.168 58.596,138.538 59.608,138.773 60.250 C 139.007 60.892,139.481 62.204,139.826 63.167 C 140.171 64.129,140.528 65.104,140.620 65.333 C 140.712 65.563,140.990 66.350,141.238 67.083 C 141.486 67.817,141.758 68.547,141.844 68.706 C 141.930 68.865,142.000 69.067,142.000 69.154 C 142.000 69.240,142.086 69.523,142.190 69.781 C 142.295 70.039,142.662 71.037,143.006 72.000 C 143.744 74.064,144.761 76.855,145.496 78.833 C 145.785 79.612,146.090 80.465,146.172 80.729 C 146.562 81.975,146.618 82.000,148.993 82.000 C 151.688 82.000,151.835 81.946,152.216 80.810 C 152.484 80.013,152.758 79.281,153.175 78.250 C 153.249 78.067,153.459 77.464,153.643 76.910 C 153.826 76.356,154.048 75.718,154.136 75.493 C 154.225 75.268,154.427 74.746,154.585 74.333 C 154.744 73.921,154.934 73.433,155.008 73.250 C 155.082 73.067,155.293 72.464,155.476 71.910 C 155.802 70.924,155.983 70.452,156.440 69.391 C 156.565 69.103,156.667 68.804,156.667 68.728 C 156.667 68.561,157.567 66.086,158.175 64.583 C 158.249 64.400,158.459 63.797,158.643 63.243 C 158.968 62.258,159.149 61.785,159.607 60.725 C 159.731 60.436,159.833 60.095,159.833 59.966 C 159.833 59.838,159.893 59.662,159.966 59.575 C 160.039 59.488,160.240 58.967,160.413 58.417 C 160.862 56.985,161.033 56.833,162.187 56.833 C 163.366 56.833,163.500 56.657,163.500 55.108 C 163.500 53.355,163.920 53.500,158.835 53.500 L 154.372 53.500 154.272 53.875 C 153.759 55.787,154.225 56.833,155.589 56.833 C 156.777 56.833,156.874 56.955,156.480 57.947 C 156.378 58.206,155.898 59.542,155.413 60.917 C 154.928 62.292,154.217 64.279,153.832 65.333 C 153.447 66.387,152.723 68.412,152.223 69.833 C 151.723 71.254,151.217 72.679,151.098 73.000 C 150.979 73.321,150.715 74.071,150.512 74.667 C 150.100 75.875,150.000 76.139,149.606 77.047 C 149.456 77.394,149.333 77.784,149.333 77.912 C 149.333 79.018,148.708 77.646,147.512 73.917 C 147.218 73.000,146.914 72.100,146.836 71.917 C 146.759 71.733,146.577 71.208,146.432 70.750 C 146.288 70.292,145.899 69.129,145.569 68.167 C 145.238 67.204,144.908 66.192,144.835 65.917 C 144.666 65.283,143.860 62.858,143.671 62.417 C 143.592 62.233,143.410 61.708,143.266 61.250 C 143.121 60.792,142.777 59.745,142.502 58.923 C 141.804 56.846,141.806 56.833,142.905 56.833 C 144.141 56.833,144.333 56.610,144.333 55.168 C 144.333 53.344,144.779 53.500,139.566 53.500 L 135.000 53.500 135.000 54.990 M281.438 53.875 C 280.914 55.833,281.387 56.833,282.836 56.833 C 284.317 56.833,284.184 55.671,284.129 68.083 L 284.083 78.583 282.917 78.631 C 281.461 78.690,281.333 78.834,281.333 80.428 C 281.333 82.096,281.075 82.013,286.104 81.961 L 290.417 81.917 290.417 80.333 L 290.417 78.750 289.125 78.701 L 287.833 78.653 287.833 73.743 L 287.833 68.833 290.542 68.819 C 294.303 68.800,295.580 68.587,297.476 67.667 C 303.272 64.851,302.946 56.415,296.957 54.226 C 295.123 53.555,294.583 53.512,287.978 53.506 L 281.539 53.500 281.438 53.875 M329.167 57.214 L 327.750 57.917 327.667 60.167 L 327.583 62.417 326.143 62.465 C 324.507 62.519,324.507 62.519,324.502 64.092 C 324.499 65.217,324.656 65.333,326.182 65.333 C 327.806 65.333,327.667 64.723,327.667 71.839 C 327.667 78.814,327.769 79.497,329.080 81.251 C 329.926 82.382,333.205 82.773,335.667 82.036 L 336.750 81.712 336.709 80.932 C 336.644 79.699,336.150 78.917,335.712 79.354 C 335.370 79.697,332.429 79.635,332.031 79.277 C 331.194 78.523,331.167 78.287,331.167 71.863 C 331.167 68.562,331.212 65.742,331.268 65.597 C 331.353 65.376,331.710 65.333,333.498 65.333 C 335.896 65.333,335.829 65.374,335.829 63.917 C 335.829 62.466,335.883 62.500,333.597 62.500 C 330.999 62.500,331.167 62.720,331.167 59.300 C 331.167 56.013,331.303 56.155,329.167 57.214 M295.250 57.240 C 297.920 58.402,298.649 62.583,296.497 64.394 C 295.150 65.527,294.903 65.583,291.250 65.583 L 287.917 65.583 287.872 61.189 L 287.828 56.795 291.206 56.872 C 293.926 56.935,294.713 57.006,295.250 57.240 M88.833 60.338 C 106.090 62.245,113.394 72.821,109.013 89.554 C 108.825 90.271,108.628 90.928,108.576 91.012 C 108.518 91.106,98.351 91.167,82.762 91.167 L 57.044 91.167 56.768 90.125 C 56.616 89.552,56.421 88.821,56.333 88.500 C 55.507 85.469,55.257 78.182,55.895 75.750 C 57.525 69.540,60.715 65.671,66.403 63.006 C 68.134 62.195,71.087 61.206,72.417 60.991 C 72.967 60.902,74.167 60.709,75.083 60.563 C 78.061 60.087,85.468 59.966,88.833 60.338 M208.775 62.251 C 206.192 62.718,203.796 63.687,203.699 64.302 C 203.632 64.736,204.566 66.424,204.855 66.388 C 204.980 66.373,205.571 66.178,206.167 65.955 C 210.938 64.169,214.333 65.675,214.333 69.578 C 214.333 70.630,214.396 70.607,211.685 70.530 C 205.555 70.356,202.333 72.496,202.333 76.741 C 202.333 81.673,208.315 84.168,212.894 81.145 C 214.093 80.354,214.102 80.354,214.247 81.125 C 214.408 81.985,214.442 81.995,217.175 81.997 C 220.007 82.000,220.000 82.004,220.000 80.561 C 220.000 78.900,219.862 78.693,218.716 78.634 L 217.750 78.583 217.741 72.917 C 217.732 66.974,217.708 66.736,216.939 65.257 C 215.686 62.844,212.331 61.609,208.775 62.251 M257.120 62.259 C 255.657 62.505,254.702 62.783,254.333 63.070 C 254.196 63.177,253.876 63.368,253.622 63.495 C 249.218 65.700,248.007 74.342,251.464 78.885 C 254.321 82.639,260.375 83.601,263.222 80.754 C 264.083 79.893,263.906 83.224,262.996 85.007 C 261.580 87.784,256.732 88.001,252.583 85.473 C 251.862 85.033,251.808 85.059,251.037 86.232 C 249.864 88.016,249.889 88.079,252.218 89.170 C 254.751 90.357,254.973 90.404,258.000 90.411 C 261.691 90.419,263.173 89.949,264.937 88.210 C 267.225 85.955,267.333 85.244,267.333 72.458 L 267.333 62.500 265.583 62.500 C 263.962 62.500,263.833 62.524,263.833 62.823 C 263.833 63.339,263.594 63.357,262.748 62.907 C 261.235 62.103,259.342 61.885,257.120 62.259 M310.441 62.251 C 308.022 62.689,305.587 63.630,305.407 64.197 C 305.293 64.555,306.087 66.326,306.373 66.353 C 306.668 66.381,306.635 66.390,307.833 65.948 C 312.466 64.242,315.775 65.515,315.876 69.044 C 315.923 70.652,315.829 70.887,315.233 70.660 C 314.556 70.403,310.802 70.469,309.368 70.764 C 303.153 72.041,301.896 79.274,307.439 81.868 C 309.533 82.848,312.426 82.555,314.561 81.145 C 315.758 80.355,315.833 80.351,315.833 81.087 C 315.833 81.886,316.198 82.000,318.750 82.000 C 321.630 82.000,321.667 81.980,321.667 80.433 C 321.667 78.909,321.484 78.667,320.333 78.667 L 319.523 78.667 319.451 72.958 C 319.378 67.213,319.259 66.026,318.701 65.467 C 318.590 65.357,318.500 65.167,318.500 65.046 C 318.500 64.642,317.077 63.394,316.073 62.918 C 314.292 62.072,312.563 61.868,310.441 62.251 M234.944 62.335 C 234.409 62.403,233.809 62.536,233.611 62.630 C 233.412 62.724,232.950 62.942,232.583 63.114 C 232.217 63.287,231.600 63.640,231.212 63.900 C 230.273 64.530,230.000 64.404,230.000 63.339 L 230.000 62.500 227.019 62.500 C 223.601 62.500,223.840 62.371,223.836 64.219 C 223.832 65.673,223.971 65.833,225.235 65.833 C 226.765 65.833,226.677 65.418,226.627 72.436 L 226.583 78.583 225.368 78.632 C 224.243 78.678,224.141 78.713,223.993 79.102 C 223.766 79.699,223.794 81.560,224.033 81.800 C 224.248 82.015,231.473 82.097,232.479 81.896 L 233.000 81.792 233.000 80.332 C 233.000 78.655,233.018 78.673,231.289 78.669 L 230.329 78.667 230.373 72.958 L 230.417 67.250 231.316 66.649 C 234.049 64.822,237.433 65.090,238.748 67.237 L 239.250 68.056 239.300 73.362 L 239.351 78.667 238.272 78.667 C 236.640 78.667,236.667 78.640,236.667 80.330 L 236.667 81.792 237.188 81.896 C 238.193 82.097,245.418 82.015,245.633 81.800 C 245.903 81.531,245.896 79.314,245.625 78.954 C 245.473 78.753,245.101 78.665,244.250 78.631 L 243.083 78.583 242.993 72.833 C 242.934 69.067,242.834 66.882,242.705 66.500 C 241.597 63.232,238.967 61.821,234.944 62.335 M164.833 64.062 C 164.833 65.860,164.811 65.833,166.327 65.833 C 167.750 65.833,167.677 65.463,167.627 72.436 L 167.583 78.583 166.417 78.667 C 164.840 78.779,164.833 78.786,164.833 80.337 C 164.833 81.469,164.879 81.679,165.156 81.827 C 165.506 82.015,172.757 82.074,173.646 81.896 L 174.167 81.792 174.167 80.320 L 174.167 78.848 173.625 78.757 C 173.327 78.707,172.671 78.648,172.167 78.625 L 171.250 78.583 171.167 70.583 L 171.083 62.583 167.958 62.538 L 164.833 62.493 164.833 64.062 M339.772 62.875 C 339.609 63.482,339.652 65.162,339.839 65.511 C 339.986 65.785,340.196 65.833,341.256 65.833 L 342.500 65.833 342.500 72.243 L 342.500 78.653 341.208 78.701 L 339.917 78.750 339.917 80.333 L 339.917 81.917 344.229 81.961 C 349.283 82.013,349.000 82.109,349.000 80.346 C 349.000 78.749,348.920 78.667,347.383 78.667 L 346.167 78.667 346.167 70.847 C 346.167 66.546,346.121 62.909,346.066 62.764 C 345.877 62.273,339.905 62.379,339.772 62.875 M261.287 65.474 C 261.674 65.580,262.387 65.880,262.870 66.141 L 263.750 66.616 263.794 71.978 L 263.838 77.340 263.349 77.818 C 260.722 80.386,255.532 79.526,254.009 76.270 C 250.995 69.823,255.070 63.779,261.287 65.474 M214.161 73.410 C 214.300 73.578,214.345 74.239,214.306 75.563 C 214.241 77.785,214.126 77.991,212.522 78.767 C 212.006 79.016,211.453 79.284,211.294 79.360 C 210.772 79.612,208.100 79.524,207.523 79.237 C 204.473 77.715,205.331 73.839,208.833 73.322 C 210.396 73.091,213.945 73.149,214.161 73.410 M315.796 75.425 C 315.848 77.864,315.841 77.880,314.441 78.657 C 310.548 80.818,306.154 78.679,307.570 75.312 C 308.266 73.655,309.589 73.191,313.500 73.228 L 315.750 73.250 315.796 75.425 M44.765 94.591 C 52.391 98.149,49.154 109.614,40.931 108.169 C 33.588 106.879,32.839 96.524,39.936 94.421 C 40.475 94.261,40.992 94.102,41.083 94.067 C 41.651 93.853,43.853 94.166,44.765 94.591 " stroke="none" fill="#0c0c0c" fill-rule="evenodd"></path><path id="path1" d="M0.000 71.417 L 0.000 142.833 200.000 142.833 L 400.000 142.833 400.000 71.417 L 400.000 0.000 200.000 0.000 L 0.000 0.000 0.000 71.417 M84.343 32.854 C 91.578 34.675,98.912 42.846,103.248 53.917 C 103.499 54.558,103.799 55.308,103.914 55.583 C 104.295 56.492,104.950 58.391,105.494 60.167 C 105.789 61.129,106.091 62.104,106.165 62.333 C 106.238 62.563,106.422 63.275,106.572 63.917 C 107.025 65.845,107.185 66.214,107.948 67.083 C 108.789 68.042,110.651 71.610,111.079 73.083 C 111.239 73.633,111.468 74.421,111.587 74.833 C 112.491 77.949,112.474 84.272,111.552 88.167 C 110.828 91.228,110.231 92.954,109.821 93.173 C 109.633 93.274,99.571 93.333,82.753 93.333 L 55.985 93.333 55.576 92.924 C 55.351 92.699,55.167 92.390,55.167 92.236 C 55.167 92.083,54.985 91.385,54.763 90.687 C 54.384 89.496,54.111 88.074,53.659 84.932 C 53.322 82.588,53.370 82.566,51.798 85.792 C 50.370 88.721,49.667 90.508,48.743 93.550 L 48.449 94.517 49.036 95.134 C 54.889 101.276,48.860 111.718,40.406 110.084 C 32.106 108.479,30.471 97.536,37.874 93.132 C 39.128 92.386,39.093 92.456,39.584 89.750 C 39.733 88.925,39.957 87.763,40.080 87.167 C 40.203 86.571,40.395 85.633,40.505 85.083 C 40.833 83.450,41.161 81.981,41.435 80.917 C 41.577 80.367,41.759 79.654,41.839 79.333 C 41.919 79.012,42.097 78.337,42.236 77.833 C 42.375 77.329,42.650 76.243,42.848 75.420 C 43.046 74.597,43.452 73.172,43.752 72.253 C 44.051 71.335,44.638 69.533,45.055 68.250 C 46.865 62.683,50.743 54.423,53.309 50.667 C 56.394 46.151,58.395 43.739,61.140 41.227 C 63.037 39.492,65.495 37.500,65.739 37.500 C 65.793 37.500,66.417 37.140,67.127 36.700 C 72.706 33.240,79.683 31.681,84.343 32.854 M78.250 34.688 C 77.883 34.773,77.021 34.963,76.333 35.111 C 70.093 36.453,63.300 41.003,58.460 47.083 C 58.314 47.267,57.844 47.855,57.416 48.391 C 53.484 53.309,47.874 65.018,45.746 72.750 C 45.619 73.208,45.208 74.633,44.832 75.917 C 44.455 77.200,44.037 78.737,43.901 79.333 C 43.766 79.929,43.538 80.904,43.396 81.500 C 42.798 83.996,42.566 85.078,42.015 87.917 C 41.820 88.925,41.586 90.112,41.497 90.554 C 41.219 91.921,41.266 92.220,41.740 92.101 C 42.392 91.937,44.399 92.293,45.449 92.758 L 46.417 93.186 46.647 92.841 C 46.773 92.651,47.156 91.691,47.497 90.706 C 48.712 87.201,50.325 83.787,52.361 80.417 C 53.105 79.185,53.403 78.511,53.504 77.833 C 53.810 75.767,53.886 75.367,54.186 74.256 C 55.050 71.049,56.830 67.930,59.202 65.465 C 60.144 64.487,62.307 62.833,62.645 62.833 C 62.870 62.833,63.456 62.102,63.581 61.667 C 64.553 58.264,69.794 52.369,74.371 49.529 C 75.630 48.747,75.832 48.705,76.224 49.138 C 76.925 49.913,76.468 50.597,74.257 52.084 C 71.403 54.002,69.386 56.014,67.199 59.123 C 66.095 60.692,66.200 60.873,67.863 60.260 C 73.752 58.088,82.656 57.488,91.500 58.665 C 95.259 59.166,99.855 60.747,102.922 62.593 C 104.433 63.503,104.438 63.484,103.514 60.688 C 101.725 55.280,98.384 48.115,96.314 45.250 C 95.718 44.425,94.918 43.288,94.536 42.723 C 90.814 37.222,83.310 33.520,78.250 34.688 M183.732 53.097 C 183.788 53.242,183.833 55.869,183.833 58.935 L 183.833 64.510 184.916 63.769 C 188.629 61.227,193.956 61.921,195.648 65.168 C 196.448 66.704,196.536 67.425,196.623 73.202 L 196.706 78.654 198.061 78.702 L 199.417 78.750 199.464 80.271 C 199.523 82.147,199.934 81.995,194.805 81.998 C 189.937 82.001,190.333 82.148,190.333 80.333 C 190.333 78.649,190.317 78.667,191.856 78.667 L 192.851 78.667 192.800 73.362 L 192.750 68.056 192.250 67.237 C 190.933 65.078,187.502 64.815,184.811 66.668 L 183.917 67.283 183.873 72.968 L 183.829 78.653 185.123 78.701 L 186.417 78.750 186.465 80.236 C 186.527 82.127,186.870 81.994,181.908 81.997 C 177.078 82.000,177.333 82.090,177.333 80.397 C 177.333 78.642,177.312 78.667,178.852 78.667 L 180.169 78.667 180.126 67.375 L 180.083 56.083 178.951 56.034 C 177.916 55.989,177.806 55.949,177.660 55.565 C 177.434 54.971,177.461 53.272,177.700 53.033 C 178.036 52.697,183.601 52.756,183.732 53.097 M358.374 65.708 L 358.417 78.583 359.659 78.633 C 361.276 78.698,361.333 78.756,361.333 80.348 C 361.333 82.072,361.532 82.000,356.772 82.000 C 351.889 82.000,352.000 82.035,352.000 80.493 C 352.000 78.767,352.087 78.667,353.590 78.667 L 354.836 78.667 354.793 67.375 L 354.750 56.083 353.476 56.035 C 352.001 55.979,352.006 55.985,352.002 54.153 C 351.999 52.736,351.758 52.833,355.277 52.833 L 358.331 52.833 358.374 65.708 M170.969 53.749 C 173.027 55.481,171.244 58.808,168.698 57.988 C 166.791 57.374,166.412 55.083,167.991 53.714 C 168.635 53.156,170.287 53.175,170.969 53.749 M346.064 54.000 C 347.701 55.812,346.035 58.638,343.700 58.009 C 342.451 57.673,341.644 56.240,342.002 54.994 C 342.509 53.225,344.847 52.653,346.064 54.000 M144.232 53.764 C 144.288 53.909,144.333 54.541,144.333 55.168 C 144.333 56.610,144.141 56.833,142.905 56.833 C 141.806 56.833,141.804 56.846,142.502 58.923 C 142.777 59.745,143.121 60.792,143.266 61.250 C 143.410 61.708,143.592 62.233,143.671 62.417 C 143.860 62.858,144.666 65.283,144.835 65.917 C 144.908 66.192,145.238 67.204,145.569 68.167 C 145.899 69.129,146.288 70.292,146.432 70.750 C 146.577 71.208,146.759 71.733,146.836 71.917 C 146.914 72.100,147.218 73.000,147.512 73.917 C 148.708 77.646,149.333 79.018,149.333 77.912 C 149.333 77.784,149.456 77.394,149.606 77.047 C 150.000 76.139,150.100 75.875,150.512 74.667 C 150.715 74.071,150.979 73.321,151.098 73.000 C 151.217 72.679,151.723 71.254,152.223 69.833 C 152.723 68.412,153.447 66.387,153.832 65.333 C 154.217 64.279,154.928 62.292,155.413 60.917 C 155.898 59.542,156.378 58.206,156.480 57.947 C 156.874 56.955,156.777 56.833,155.589 56.833 C 154.225 56.833,153.759 55.787,154.272 53.875 L 154.372 53.500 158.835 53.500 C 163.920 53.500,163.500 53.355,163.500 55.108 C 163.500 56.657,163.366 56.833,162.187 56.833 C 161.033 56.833,160.862 56.985,160.413 58.417 C 160.240 58.967,160.039 59.488,159.966 59.575 C 159.893 59.662,159.833 59.838,159.833 59.966 C 159.833 60.095,159.731 60.436,159.607 60.725 C 159.149 61.785,158.968 62.258,158.643 63.243 C 158.459 63.797,158.249 64.400,158.175 64.583 C 157.567 66.086,156.667 68.561,156.667 68.728 C 156.667 68.804,156.565 69.103,156.440 69.391 C 155.983 70.452,155.802 70.924,155.476 71.910 C 155.293 72.464,155.082 73.067,155.008 73.250 C 154.934 73.433,154.744 73.921,154.585 74.333 C 154.427 74.746,154.225 75.268,154.136 75.493 C 154.048 75.718,153.826 76.356,153.643 76.910 C 153.459 77.464,153.249 78.067,153.175 78.250 C 152.758 79.281,152.484 80.013,152.216 80.810 C 151.835 81.946,151.688 82.000,148.993 82.000 C 146.618 82.000,146.562 81.975,146.172 80.729 C 146.090 80.465,145.785 79.612,145.496 78.833 C 144.761 76.855,143.744 74.064,143.006 72.000 C 142.662 71.037,142.295 70.039,142.190 69.781 C 142.086 69.523,142.000 69.240,142.000 69.154 C 142.000 69.067,141.930 68.865,141.844 68.706 C 141.758 68.547,141.486 67.817,141.238 67.083 C 140.990 66.350,140.712 65.563,140.620 65.333 C 140.528 65.104,140.171 64.129,139.826 63.167 C 139.481 62.204,139.007 60.892,138.773 60.250 C 138.538 59.608,138.168 58.596,137.950 58.000 L 137.554 56.917 136.485 56.833 C 134.998 56.717,135.000 56.720,135.000 54.990 L 135.000 53.500 139.566 53.500 C 143.575 53.500,144.143 53.532,144.232 53.764 M295.333 53.740 C 299.926 54.881,302.299 58.216,301.521 62.437 C 300.712 66.825,297.343 68.784,290.542 68.819 L 287.833 68.833 287.833 73.743 L 287.833 78.653 289.125 78.701 L 290.417 78.750 290.417 80.333 L 290.417 81.917 286.104 81.961 C 281.075 82.013,281.333 82.096,281.333 80.428 C 281.333 78.834,281.461 78.690,282.917 78.631 L 284.083 78.583 284.129 68.083 C 284.184 55.671,284.317 56.833,282.836 56.833 C 281.387 56.833,280.914 55.833,281.438 53.875 L 281.539 53.500 287.978 53.506 C 292.847 53.510,294.640 53.567,295.333 53.740 M331.167 59.300 C 331.167 62.720,330.999 62.500,333.597 62.500 C 335.883 62.500,335.829 62.466,335.829 63.917 C 335.829 65.374,335.896 65.333,333.498 65.333 C 331.710 65.333,331.353 65.376,331.268 65.597 C 331.212 65.742,331.167 68.562,331.167 71.863 C 331.167 78.287,331.194 78.523,332.031 79.277 C 332.429 79.635,335.370 79.697,335.712 79.354 C 336.150 78.917,336.644 79.699,336.709 80.932 L 336.750 81.712 335.667 82.036 C 333.205 82.773,329.926 82.382,329.080 81.251 C 327.769 79.497,327.667 78.814,327.667 71.839 C 327.667 64.723,327.806 65.333,326.182 65.333 C 324.656 65.333,324.499 65.217,324.502 64.092 C 324.507 62.519,324.507 62.519,326.143 62.465 L 327.583 62.417 327.667 60.167 L 327.750 57.917 329.167 57.214 C 331.303 56.155,331.167 56.013,331.167 59.300 M287.872 61.189 L 287.917 65.583 291.250 65.583 C 294.903 65.583,295.150 65.527,296.497 64.394 C 298.151 63.002,298.138 59.633,296.473 58.057 C 295.431 57.070,294.930 56.958,291.206 56.872 L 287.828 56.795 287.872 61.189 M79.667 60.190 C 78.063 60.249,76.000 60.417,75.083 60.563 C 74.167 60.709,72.967 60.902,72.417 60.991 C 71.087 61.206,68.134 62.195,66.403 63.006 C 60.715 65.671,57.525 69.540,55.895 75.750 C 55.257 78.182,55.507 85.469,56.333 88.500 C 56.421 88.821,56.616 89.552,56.768 90.125 L 57.044 91.167 82.762 91.167 C 98.351 91.167,108.518 91.106,108.576 91.012 C 108.628 90.928,108.825 90.271,109.013 89.554 C 111.926 78.429,109.398 69.263,102.114 64.540 C 96.792 61.088,90.172 59.806,79.667 60.190 M212.250 62.224 C 214.457 62.647,216.154 63.745,216.939 65.257 C 217.708 66.736,217.732 66.974,217.741 72.917 L 217.750 78.583 218.716 78.634 C 219.862 78.693,220.000 78.900,220.000 80.561 C 220.000 82.004,220.007 82.000,217.175 81.997 C 214.442 81.995,214.408 81.985,214.247 81.125 C 214.102 80.354,214.093 80.354,212.894 81.145 C 208.315 84.168,202.333 81.673,202.333 76.741 C 202.333 72.496,205.555 70.356,211.685 70.530 C 214.396 70.607,214.333 70.630,214.333 69.578 C 214.333 65.675,210.938 64.169,206.167 65.955 C 204.664 66.517,204.683 66.521,204.137 65.521 C 203.399 64.168,203.575 63.876,205.583 63.120 C 208.179 62.143,210.324 61.855,212.250 62.224 M260.686 62.243 C 261.385 62.377,262.312 62.675,262.748 62.907 C 263.594 63.357,263.833 63.339,263.833 62.823 C 263.833 62.524,263.962 62.500,265.583 62.500 L 267.333 62.500 267.333 72.458 C 267.333 85.244,267.225 85.955,264.937 88.210 C 263.173 89.949,261.691 90.419,258.000 90.411 C 254.973 90.404,254.751 90.357,252.218 89.170 C 249.889 88.079,249.864 88.016,251.037 86.232 C 251.808 85.059,251.862 85.033,252.583 85.473 C 256.732 88.001,261.580 87.784,262.996 85.007 C 263.906 83.224,264.083 79.893,263.222 80.754 C 260.375 83.601,254.321 82.639,251.464 78.885 C 248.007 74.342,249.218 65.700,253.622 63.495 C 253.876 63.368,254.196 63.177,254.333 63.070 C 255.320 62.302,258.699 61.863,260.686 62.243 M313.917 62.224 C 315.913 62.607,318.500 64.200,318.500 65.046 C 318.500 65.167,318.590 65.357,318.701 65.467 C 319.259 66.026,319.378 67.213,319.451 72.958 L 319.523 78.667 320.333 78.667 C 321.484 78.667,321.667 78.909,321.667 80.433 C 321.667 81.980,321.630 82.000,318.750 82.000 C 316.198 82.000,315.833 81.886,315.833 81.087 C 315.833 80.351,315.758 80.355,314.561 81.145 C 312.426 82.555,309.533 82.848,307.439 81.868 C 301.896 79.274,303.153 72.041,309.368 70.764 C 310.802 70.469,314.556 70.403,315.233 70.660 C 315.829 70.887,315.923 70.652,315.876 69.044 C 315.775 65.515,312.466 64.242,307.833 65.948 C 306.228 66.540,306.260 66.548,305.739 65.408 C 305.132 64.082,305.270 63.874,307.250 63.122 C 309.820 62.147,311.989 61.854,313.917 62.224 M237.770 62.321 C 239.696 62.600,241.400 63.734,242.169 65.250 C 242.864 66.621,242.901 66.955,242.993 72.833 L 243.083 78.583 244.250 78.631 C 245.101 78.665,245.473 78.753,245.625 78.954 C 245.896 79.314,245.903 81.531,245.633 81.800 C 245.418 82.015,238.193 82.097,237.188 81.896 L 236.667 81.792 236.667 80.330 C 236.667 78.640,236.640 78.667,238.272 78.667 L 239.351 78.667 239.300 73.362 L 239.250 68.056 238.748 67.237 C 237.433 65.090,234.049 64.822,231.316 66.649 L 230.417 67.250 230.373 72.958 L 230.329 78.667 231.289 78.669 C 233.018 78.673,233.000 78.655,233.000 80.332 L 233.000 81.792 232.479 81.896 C 231.473 82.097,224.248 82.015,224.033 81.800 C 223.794 81.560,223.766 79.699,223.993 79.102 C 224.141 78.713,224.243 78.678,225.368 78.632 L 226.583 78.583 226.627 72.436 C 226.677 65.418,226.765 65.833,225.235 65.833 C 223.971 65.833,223.832 65.673,223.836 64.219 C 223.840 62.371,223.601 62.500,227.019 62.500 L 230.000 62.500 230.000 63.339 C 230.000 64.404,230.273 64.530,231.212 63.900 C 231.600 63.640,232.217 63.287,232.583 63.114 C 232.950 62.942,233.412 62.724,233.611 62.630 C 233.951 62.468,235.419 62.232,236.333 62.192 C 236.563 62.182,237.209 62.240,237.770 62.321 M171.167 70.583 L 171.250 78.583 172.167 78.625 C 172.671 78.648,173.327 78.707,173.625 78.757 L 174.167 78.848 174.167 80.320 L 174.167 81.792 173.646 81.896 C 172.757 82.074,165.506 82.015,165.156 81.827 C 164.879 81.679,164.833 81.469,164.833 80.337 C 164.833 78.786,164.840 78.779,166.417 78.667 L 167.583 78.583 167.627 72.436 C 167.677 65.463,167.750 65.833,166.327 65.833 C 164.811 65.833,164.833 65.860,164.833 64.062 L 164.833 62.493 167.958 62.538 L 171.083 62.583 171.167 70.583 M346.066 62.764 C 346.121 62.909,346.167 66.546,346.167 70.847 L 346.167 78.667 347.383 78.667 C 348.920 78.667,349.000 78.749,349.000 80.346 C 349.000 82.109,349.283 82.013,344.229 81.961 L 339.917 81.917 339.917 80.333 L 339.917 78.750 341.208 78.701 L 342.500 78.653 342.500 72.243 L 342.500 65.833 341.256 65.833 C 339.782 65.833,339.665 65.715,339.669 64.219 C 339.673 62.368,339.425 62.500,342.918 62.500 C 345.542 62.500,345.978 62.537,346.066 62.764 M257.115 65.430 C 253.307 66.840,251.899 71.756,254.009 76.270 C 255.532 79.526,260.722 80.386,263.349 77.818 L 263.838 77.340 263.794 71.978 L 263.750 66.616 262.870 66.141 C 261.245 65.263,258.485 64.922,257.115 65.430 M208.833 73.322 C 205.331 73.839,204.473 77.715,207.523 79.237 C 208.100 79.524,210.772 79.612,211.294 79.360 C 214.324 77.898,214.234 78.012,214.306 75.563 C 214.345 74.239,214.300 73.578,214.161 73.410 C 213.945 73.149,210.396 73.091,208.833 73.322 M310.500 73.327 C 308.014 73.727,306.721 75.661,307.574 77.703 C 308.532 79.995,313.094 80.138,315.463 77.950 C 315.826 77.615,315.841 77.504,315.796 75.425 L 315.750 73.250 313.500 73.228 C 312.262 73.216,310.912 73.261,310.500 73.327 M41.083 94.067 C 40.992 94.102,40.475 94.261,39.936 94.421 C 32.839 96.524,33.588 106.879,40.931 108.169 C 47.878 109.390,52.067 100.576,46.750 95.926 C 45.124 94.503,42.342 93.591,41.083 94.067 " stroke="none" fill="#fbfbfb" fill-rule="evenodd"></path></g></svg>